<?xml version="1.0" encoding="UTF-8" standalone="no" ?>
<!DOCTYPE svg PUBLIC "-//W3C//DTD SVG 1.1//EN" "http://www.w3.org/Graphics/SVG/1.1/DTD/svg11.dtd">
<svg xmlns="http://www.w3.org/2000/svg" xmlns:xlink="http://www.w3.org/1999/xlink" version="1.1" width="1280" height="1024" viewBox="0 0 1280 1024" xml:space="preserve">
<desc>Created with Fabric.js 5.3.0</desc>
<defs>
</defs>
<g transform="matrix(1 0 0 1 640 512)" id="background-logo"  >
<rect style="stroke: none; stroke-width: 0; stroke-dasharray: none; stroke-linecap: butt; stroke-dashoffset: 0; stroke-linejoin: miter; stroke-miterlimit: 4; fill: rgb(221,255,243); fill-rule: nonzero; opacity: 1;"  paint-order="stroke"  x="-640" y="-512" rx="0" ry="0" width="1280" height="1024" />
</g>
<g transform="matrix(1.9211538461538462 0 0 1.9211538461538462 663.9358873617285 425.0948796267347)" id="logo-logo"  >
<g style=""  paint-order="stroke"   >
		<g transform="matrix(-0.0389663907521546 0.049874705779986 0.04987470577998598 0.03896639075215458 -6.682139510003651 -77.51403997091316)"  >
<g style=""  paint-order="stroke"   >
		<g transform="matrix(1 0 0 1 0 0)"  >
<linearGradient id="SVGID_11_461343" gradientUnits="userSpaceOnUse" gradientTransform="matrix(1 0 0 1 0.00003144081065897808 0)"  x1="0" y1="150" x2="265.5653385591893" y2="150">
<stop offset="7.500000000000013%" style="stop-color:rgb(23,109,100);stop-opacity: 1"/>
<stop offset="62.5%" style="stop-color:rgb(27,195,153);stop-opacity: 1"/>
</linearGradient>
<path style="stroke: none; stroke-width: 1; stroke-dasharray: none; stroke-linecap: butt; stroke-dashoffset: 0; stroke-linejoin: miter; stroke-miterlimit: 4; fill: url(#SVGID_11_461343); fill-rule: nonzero; opacity: 1;"  paint-order="stroke"  transform=" translate(-132.7827007204053, -150)" d="M 79.98114 50.56616 C 18.32744 88.77026 -4.12433 155.55371 0.61087 222.72913 L 0.80078 224.08984999999998 C 23.31258 129.6626 94.21918000000001 69.19044 168.75891000000001 50.46167999999997 C 113.30748 76.27722 -1.81802 157.81677 20.77091 300 C 21.04003 287.28906 24.11496 274.75818 30.35406 263.64258 C 40.68065 245.245 58.64551 231.52246000000002 76.90554 221.57349 C 102.48836 207.63465 130.19765 196.55982 154.21439 179.90796 C 176.59769 164.38831 190.05347 142.20191 198.71146000000002 116.68384 C 212.92505 74.79199 217.61874 17.43079 265.56537 0 C 198.83618 4.77063 129.88524 19.64307 79.98114 50.56616 z" stroke-linecap="round" />
</g>
		<g transform="matrix(1 0 0 1 -18.1314557204053 -16.371520000000004)"  >
<path style="stroke: none; stroke-width: 1; stroke-dasharray: none; stroke-linecap: butt; stroke-dashoffset: 0; stroke-linejoin: miter; stroke-miterlimit: 4; fill: rgb(27,195,153); fill-rule: nonzero; opacity: 1;"  paint-order="stroke"  transform=" translate(-114.651245, -133.62848)" d="M 189.34949 109.25122 C 170.81452000000002 195.49231 89.63292 191.95288 34.42591999999999 240.95190000000002 C 65.80745999999999 203.27880000000002 117.7948 193.67602000000002 154.58429 163.13147000000004 C 170.92238 148.75525 181.33438 129.26331 189.34949 109.25122 z M 197.84155 80.6886 C 206.14883 63.309569999999994 212.21881000000002 44.29955999999999 219.07382 26.30505999999999 C 206.61923 41.63647 200.24753 61.28186 197.84155 80.6886 z M 94.90573 77.7782 C 54.83823 98.28125 21.794540000000012 135.45239 10.228670000000008 179.36426 C 25.76956 137.04285 57.18239 101.8988 94.90573 77.7782 z" stroke-linecap="round" />
</g>
</g>
</g>
		<g transform="matrix(-0.0939513854637955 0.014880437604398037 0.014880437604398035 0.09395138546379547 -28.783175844205118 -27.989849404638733)"  >
<g style=""  paint-order="stroke"   >
		<g transform="matrix(1 0 0 1 0 0)"  >
<linearGradient id="SVGID_11_461344" gradientUnits="userSpaceOnUse" gradientTransform="matrix(1 0 0 1 0.00003144081065897808 0)"  x1="0" y1="150" x2="265.5653385591893" y2="150">
<stop offset="7.500000000000013%" style="stop-color:rgb(23,109,100);stop-opacity: 1"/>
<stop offset="62.5%" style="stop-color:rgb(27,195,153);stop-opacity: 1"/>
</linearGradient>
<path style="stroke: none; stroke-width: 1; stroke-dasharray: none; stroke-linecap: butt; stroke-dashoffset: 0; stroke-linejoin: miter; stroke-miterlimit: 4; fill: url(#SVGID_11_461344); fill-rule: nonzero; opacity: 1;"  paint-order="stroke"  transform=" translate(-132.7827007204053, -150)" d="M 79.98114 50.56616 C 18.32744 88.77026 -4.12433 155.55371 0.61087 222.72913 L 0.80078 224.08984999999998 C 23.31258 129.6626 94.21918000000001 69.19044 168.75891000000001 50.46167999999997 C 113.30748 76.27722 -1.81802 157.81677 20.77091 300 C 21.04003 287.28906 24.11496 274.75818 30.35406 263.64258 C 40.68065 245.245 58.64551 231.52246000000002 76.90554 221.57349 C 102.48836 207.63465 130.19765 196.55982 154.21439 179.90796 C 176.59769 164.38831 190.05347 142.20191 198.71146000000002 116.68384 C 212.92505 74.79199 217.61874 17.43079 265.56537 0 C 198.83618 4.77063 129.88524 19.64307 79.98114 50.56616 z" stroke-linecap="round" />
</g>
		<g transform="matrix(1 0 0 1 -18.1314557204053 -16.371520000000004)"  >
<path style="stroke: none; stroke-width: 1; stroke-dasharray: none; stroke-linecap: butt; stroke-dashoffset: 0; stroke-linejoin: miter; stroke-miterlimit: 4; fill: rgb(27,195,153); fill-rule: nonzero; opacity: 1;"  paint-order="stroke"  transform=" translate(-114.651245, -133.62848)" d="M 189.34949 109.25122 C 170.81452000000002 195.49231 89.63292 191.95288 34.42591999999999 240.95190000000002 C 65.80745999999999 203.27880000000002 117.7948 193.67602000000002 154.58429 163.13147000000004 C 170.92238 148.75525 181.33438 129.26331 189.34949 109.25122 z M 197.84155 80.6886 C 206.14883 63.309569999999994 212.21881000000002 44.29955999999999 219.07382 26.30505999999999 C 206.61923 41.63647 200.24753 61.28186 197.84155 80.6886 z M 94.90573 77.7782 C 54.83823 98.28125 21.794540000000012 135.45239 10.228670000000008 179.36426 C 25.76956 137.04285 57.18239 101.8988 94.90573 77.7782 z" stroke-linecap="round" />
</g>
</g>
</g>
		<g transform="matrix(-0.017356693714821327 0.060529984358390486 -0.060529984358390486 -0.017356693714821327 9.533422821182569 -7.457774773683468)"  >
<g style=""  paint-order="stroke"   >
		<g transform="matrix(1 0 0 1 0 0)"  >
<linearGradient id="SVGID_11_461345" gradientUnits="userSpaceOnUse" gradientTransform="matrix(1 0 0 1 0.00003144081065897808 0)"  x1="0" y1="150" x2="265.5653385591893" y2="150">
<stop offset="7.500000000000013%" style="stop-color:rgb(23,109,100);stop-opacity: 1"/>
<stop offset="62.5%" style="stop-color:rgb(27,195,153);stop-opacity: 1"/>
</linearGradient>
<path style="stroke: none; stroke-width: 1; stroke-dasharray: none; stroke-linecap: butt; stroke-dashoffset: 0; stroke-linejoin: miter; stroke-miterlimit: 4; fill: url(#SVGID_11_461345); fill-rule: nonzero; opacity: 1;"  paint-order="stroke"  transform=" translate(-132.7827007204053, -150)" d="M 79.98114 50.56616 C 18.32744 88.77026 -4.12433 155.55371 0.61087 222.72913 L 0.80078 224.08984999999998 C 23.31258 129.6626 94.21918000000001 69.19044 168.75891000000001 50.46167999999997 C 113.30748 76.27722 -1.81802 157.81677 20.77091 300 C 21.04003 287.28906 24.11496 274.75818 30.35406 263.64258 C 40.68065 245.245 58.64551 231.52246000000002 76.90554 221.57349 C 102.48836 207.63465 130.19765 196.55982 154.21439 179.90796 C 176.59769 164.38831 190.05347 142.20191 198.71146000000002 116.68384 C 212.92505 74.79199 217.61874 17.43079 265.56537 0 C 198.83618 4.77063 129.88524 19.64307 79.98114 50.56616 z" stroke-linecap="round" />
</g>
		<g transform="matrix(1 0 0 1 -18.1314557204053 -16.371520000000004)"  >
<path style="stroke: none; stroke-width: 1; stroke-dasharray: none; stroke-linecap: butt; stroke-dashoffset: 0; stroke-linejoin: miter; stroke-miterlimit: 4; fill: rgb(27,195,153); fill-rule: nonzero; opacity: 1;"  paint-order="stroke"  transform=" translate(-114.651245, -133.62848)" d="M 189.34949 109.25122 C 170.81452000000002 195.49231 89.63292 191.95288 34.42591999999999 240.95190000000002 C 65.80745999999999 203.27880000000002 117.7948 193.67602000000002 154.58429 163.13147000000004 C 170.92238 148.75525 181.33438 129.26331 189.34949 109.25122 z M 197.84155 80.6886 C 206.14883 63.309569999999994 212.21881000000002 44.29955999999999 219.07382 26.30505999999999 C 206.61923 41.63647 200.24753 61.28186 197.84155 80.6886 z M 94.90573 77.7782 C 54.83823 98.28125 21.794540000000012 135.45239 10.228670000000008 179.36426 C 25.76956 137.04285 57.18239 101.8988 94.90573 77.7782 z" stroke-linecap="round" />
</g>
</g>
</g>
		<g transform="matrix(0.5968301691916424 0 0 0.5968301691916424 -16.42273976124551 -29.16046506961817)"  >
<g style=""  paint-order="stroke"   >
		<g transform="matrix(1 0 0 1 0 0)"  >
<linearGradient id="SVGID_14_461346" gradientUnits="userSpaceOnUse" gradientTransform="matrix(1 0 0 1 0.00000563804660203004 0)"  x1="110.47009728384546" y1="0" x2="110.4700972838454" y2="250">
<stop offset="0%" style="stop-color:rgb(255,255,255);stop-opacity: 1"/>
<stop offset="12.999999999999995%" style="stop-color:rgb(43,228,180);stop-opacity: 1"/>
<stop offset="69.5%" style="stop-color:rgb(24,162,132);stop-opacity: 1"/>
<stop offset="100%" style="stop-color:rgb(10,18,38);stop-opacity: 1"/>
</linearGradient>
<path style="stroke: none; stroke-width: 1; stroke-dasharray: none; stroke-linecap: butt; stroke-dashoffset: 0; stroke-linejoin: miter; stroke-miterlimit: 4; fill: url(#SVGID_14_461346); fill-rule: nonzero; opacity: 1;"  paint-order="stroke"  transform=" translate(-110.47010292189204, -125)" d="M 196.65317 250 L 82.43027 250 C 81.44255 250 80.50116 249.58145 79.83927 248.84799 C 79.17805 248.11587 78.85767 247.13565 78.95856 246.15405 C 80.22714 233.78323 78.19850000000001 223.12747000000002 76.90812000000001 217.97000000000003 C 69.14193000000002 220.40900000000002 61.28576000000001 222.55351000000002 54.20260000000001 224.48807000000002 C 52.40846000000001 224.97751000000002 50.683850000000014 225.44785000000002 49.04718000000001 225.90048000000002 C 39.71180000000001 228.48262000000003 32.84677000000001 227.74232 28.645680000000013 223.70007 C 23.420730000000013 218.67485000000002 24.022640000000013 210.40081 25.447320000000012 204.34628 C 26.942890000000013 197.99182000000002 24.997420000000012 194.87117 21.859730000000013 190.83708000000001 C 20.041050000000013 188.49762 19.343710000000012 186.17587 19.787470000000013 183.93455 C 19.87404000000001 183.49829 19.99810000000001 183.09884 20.147390000000012 182.7321 C 18.304850000000012 180.29039 16.09899000000001 176.37491 16.976970000000012 172.42535 C 17.43505000000001 170.36128000000002 17.30621000000001 166.20723 17.04718000000001 162.94342 C 13.60069000000001 162.14996 7.737700000000011 160.38582 3.9476600000000115 156.97478 C -3.043479999999988 150.68030000000002 0.2319100000000116 145.64281 6.176700000000011 136.49625 C 6.987880000000011 135.24744 7.865180000000011 133.90866 8.78134000000001 132.51125 C 14.42006000000001 123.90456999999999 22.14330000000001 112.11724999999998 23.62865000000001 107.28835 C 23.76771000000001 106.83641 23.80997000000001 106.70007 22.16376000000001 105.0225 C 19.762260000000012 102.57533 15.74317000000001 98.47989999999999 19.01379000000001 90.12134999999999 C 20.28305000000001 86.87799999999999 21.11808000000001 82.77369999999999 22.08468000000001 78.02045999999999 C 24.15626000000001 67.84050999999998 26.73362000000001 55.17042999999998 35.39075000000001 42.85140999999999 C 54.82838000000001 15.189509999999988 87.33758 0.3728799999999879 129.40575 0.004099999999986892 C 129.72202 0.00136 130.0424 0 130.35733 0 C 162.25099 0 183.21895 14.12679 195.23259 26.04635 C 210.46912999999998 41.1636 219.79564 61.146550000000005 220.82085999999998 80.87048 C 222.24689999999998 108.33673999999999 210.62318 132.05044 200.36687999999998 152.97342 C 196.79767999999999 160.25494 193.42618 167.13292 190.97899999999998 173.4942 C 182.15965 196.42535 199.75064999999998 244.81936000000002 199.92924 245.30470000000003 C 200.32188 246.37628000000004 200.16782999999998 247.57191000000003 199.51479999999998 248.50715000000002 C 198.86313 249.4424 197.79428 250 196.65317 250 z M 86.20737 243.01978 L 191.7561 243.01978 C 187.38255 229.77642 176.34097 192.10907 184.46504000000002 170.98842 C 187.02127000000002 164.33946 190.45958000000002 157.32514999999998 194.09967 149.90048 C 203.98105 129.73961 215.18214 106.89024999999998 213.84882 81.23312999999999 C 211.45889 35.212 168.68726 6.98091 130.15692 6.98091 C 129.92515 6.98091 129.69748 6.98227 129.46571 6.984319999999999 C 89.17873 7.33742 59.44867000000001 20.75528 41.10170000000001 46.86503 C 33.28302000000001 57.99114 30.968100000000007 69.3715 28.92515000000001 79.41239999999999 C 27.936740000000007 84.27129 27.00286000000001 88.86025 25.51411000000001 92.66529999999999 C 23.889710000000008 96.81593999999998 25.04649000000001 97.99453999999999 27.14601000000001 100.13359999999999 C 28.96128000000001 101.98363999999998 31.70429000000001 104.77913999999998 30.30075000000001 109.34150999999999 C 28.654530000000012 114.69051999999999 22.49775000000001 124.31219999999999 14.619770000000011 136.33674 C 13.709070000000011 137.72733 12.836540000000012 139.05929999999998 12.029450000000011 140.29992 C 6.060120000000011 149.48327999999998 6.156240000000011 149.57055 8.617720000000011 151.78596 C 11.835850000000011 154.68302 18.498430000000013 156.22084999999998 20.79359000000001 156.56986999999998 C 22.347780000000007 156.80572999999998 23.55228000000001 158.05044999999998 23.73633000000001 159.61145 C 23.85085000000001 160.58623 24.82972000000001 169.26516999999998 23.79086000000001 173.93864 C 23.458210000000008 175.43695 25.52910000000001 178.54532999999998 27.088750000000008 180.11998 C 27.851530000000007 180.89162 28.215540000000008 181.97682 28.068980000000007 183.05113 C 27.940150000000006 183.99182 27.437760000000008 184.83708000000001 26.681800000000006 185.39332 C 26.755420000000004 185.61144 26.944920000000007 186.00544 27.369600000000005 186.55214999999998 C 31.034900000000004 191.26379999999997 34.43095 196.64485 32.24213 205.94545999999997 C 31.576830000000005 208.77162999999996 30.366190000000003 215.67006999999998 33.4848 218.67075999999997 C 35.75201 220.85207999999997 40.49026 221.02521999999996 47.18623 219.17382999999998 C 48.830400000000004 218.71847999999997 50.56251 218.24539 52.36414 217.75460999999999 C 72.62795 212.22223 106.54342 202.96387 113.30619999999999 190.76209999999998 C 121.05944 176.77027999999999 126.00422999999999 157.47648999999998 126.05330999999998 157.28287999999998 C 126.52637999999999 155.41512999999998 128.42276999999999 154.27674999999996 130.29324999999997 154.75800999999998 C 132.16099999999997 155.23108 133.29255999999998 157.12883 132.81949999999998 158.99794999999997 C 132.60953999999998 159.82141 127.61158999999998 179.34831999999997 119.41117999999997 194.14586999999997 C 114.32596999999997 203.32242999999997 99.68928999999997 210.26856999999998 83.56318999999996 215.79004999999998 C 84.86108 220.80846 86.88903 230.89706 86.20737 243.01978 z M 26.45345 185.54874 C 26.418 185.57056 26.38187 185.59236 26.34575 185.61281 C 26.38324 185.591 26.41936 185.57056 26.45345 185.54874 z" stroke-linecap="round" />
</g>
		<g transform="matrix(1 0 0 1 11.651075991340974 -12.313578134068521)"  >
<path style="stroke: none; stroke-width: 1; stroke-dasharray: none; stroke-linecap: butt; stroke-dashoffset: 0; stroke-linejoin: miter; stroke-miterlimit: 4; fill: rgb(23,110,100); fill-rule: nonzero; opacity: 1;"  paint-order="stroke"  transform=" translate(-122.12117891323301, -112.68642186593148)" d="M 40.86585 215.34697 C 39.60137 215.34697 38.47594 214.44989 38.233270000000005 213.16156 C 37.95924 211.70688 38.91698 210.30402 40.372330000000005 210.03 C 54.191010000000006 207.42604 67.83723 203.52147 80.93266 198.424 C 84.97833 196.84935000000002 89.60206 194.92434 93.26941 192.00682 C 97.23940999999999 188.84935000000002 100.16852 184.50716 102.51070999999999 180.67485 C 107.45822999999999 172.58351 110.55501999999998 165.25563 111.9797 158.27266 C 114.14465999999999 147.65781 112.79292 136.88617 111.36211999999999 125.4833 C 109.91766999999999 113.97409999999999 108.42482999999999 102.07294 110.9279 90.43218 C 111.49436 87.7996 112.41732999999999 84.40219 114.54548 81.47308000000001 C 116.60477999999999 78.63940000000001 119.39074 76.74234000000001 122.08467 74.90798000000001 L 122.61092000000001 74.54874000000001 C 130.36416 69.25086 137.70295000000002 63.25426000000001 144.42279000000002 56.72666000000001 C 145.17943000000002 55.99046000000001 145.87064 55.28017000000001 146.01651 54.67690000000001 C 146.14467000000002 54.14861000000001 145.94153 53.30198000000001 145.7234 52.47990000000001 C 142.07377 38.76211000000001 135.11535 25.960470000000008 125.56662 15.38515000000001 C 116.89859 15.39197000000001 59.002880000000005 17.46150000000001 41.53798999999999 70.18746000000002 C 41.07240999999999 71.59373000000002 39.55570999999999 72.35583000000001 38.14943999999999 71.88958000000001 C 36.743849999999995 71.424 35.98174999999999 69.90662 36.447329999999994 68.50103000000001 C 56.53457999999999 7.862990000000018 126.17465999999999 10.017730000000014 126.87268999999999 10.039540000000017 C 127.58026 10.068170000000016 128.24828 10.376280000000017 128.72954 10.896390000000016 C 139.2667 22.271300000000018 146.9354 36.17383000000002 150.90541 51.10021000000002 C 151.28440999999998 52.522840000000016 151.65386999999998 54.18951000000002 151.22851 55.94002000000002 C 150.70771 58.096800000000016 149.17398 59.58692000000002 148.15966 60.572600000000016 C 141.22033 67.31357000000001 133.64295 73.50579000000002 125.6375 78.97682000000002 L 125.10308 79.34083000000001 C 122.68181000000001 80.98978000000001 120.39415000000001 82.54738 118.88358000000001 84.62577000000002 C 117.34575000000001 86.74165000000002 116.62659000000001 89.44308000000002 116.17125000000001 91.55965000000002 C 113.85905000000001 102.30948000000002 115.23055000000001 113.24131000000003 116.68317000000002 124.81527000000003 C 118.10512000000001 136.14723000000004 119.57479000000002 147.86504000000002 117.23395000000002 159.34424 C 115.68317000000002 166.94751000000002 112.36347000000002 174.83981 107.08603000000002 183.47240000000002 C 104.49912000000002 187.70417000000003 101.23190000000002 192.52625000000003 96.60819000000002 196.20314000000002 C 92.35393000000002 199.58827000000002 87.29053000000002 201.70416000000003 82.87813000000003 203.42195 C 69.47527000000002 208.63940000000002 55.50799000000003 212.63531 41.36484000000003 215.30061 C 41.19714 215.33197 41.03013 215.34697 40.86585 215.34697 z M 145.35529 148.59032 C 179.13579 147.31697 206.60137 119.85821999999999 207.88289 86.07976 C 208.5632 68.19699999999999 202.11739 51.26584999999999 189.73702 38.406279999999995 C 177.34984 25.539879999999997 160.69544 18.453989999999994 142.83996 18.453989999999994 C 141.35938 18.453989999999994 140.15829 19.655079999999995 140.15829 21.135649999999995 C 140.15829 22.616219999999995 141.35939 23.817309999999996 142.83996 23.817309999999996 C 159.22441999999998 23.817309999999996 174.5073 30.319019999999995 185.87336 42.12541999999999 C 197.23396 53.92568999999999 203.14806 69.46351999999999 202.52503 85.87661 C 201.34711 116.8698 176.14738999999997 142.06271 145.15352 143.23244 C 142.02059 143.34832 138.87539999999998 143.22426 135.78882 142.86434 C 134.70635 142.73618 133.73838999999998 142.17722 133.0649 141.28834 C 132.36824 140.3681 132.07103 139.18609 132.25235 138.04362 C 132.60410000000002 135.81459 134.64227 134.2713 136.89175 134.53306 C 139.90197 134.87934 142.97491 134.9625 146.03013 134.77709000000002 C 171.43708 133.23789000000002 192.06422 112.95432000000002 194.01104 87.59440000000001 C 195.5516 67.54259 185.20258 48.311510000000006 167.64703 38.60190000000001 C 165.33484 37.323780000000006 162.56182 37.07157000000001 160.03422 37.91001000000001 C 157.4548 38.76482000000001 155.33348 40.673480000000005 154.20054000000002 43.17313000000001 C 152.10784 47.79412000000001 153.92788000000002 53.18813000000001 158.43504000000001 55.71983000000001 C 169.41391000000002 61.88684000000001 175.75474000000003 74.00476 174.59182 86.59236000000001 C 173.1944 101.71301000000001 161.21622000000002 113.77640000000001 146.11193 115.27675000000002 C 139.78609 115.90115000000002 133.53251 114.69734000000003 128.00695 111.78800000000003 C 126.07784 110.77232000000002 125.24757 108.41990000000003 126.07374999999999 106.31561000000002 C 126.53455 105.14519000000001 127.47388999999998 104.22154000000002 128.65044 103.78187000000003 C 129.82836 103.34015000000002 131.08533 103.41786000000003 132.191 103.99523000000002 C 136.2837 106.13156000000002 140.91219 106.97682000000002 145.56386 106.44103000000003 C 156.08875 105.22972000000003 164.57681 96.70552000000002 165.74518 86.17246000000003 C 166.77449000000001 76.90116000000003 162.20462 67.97410000000002 154.10237 63.42944000000003 C 152.81267 62.70620000000003 151.17531 63.16359000000003 150.45274 64.45602000000002 C 149.72746 65.74778000000002 150.1869 67.38240000000002 151.47934 68.10701000000003 C 157.69884000000002 71.59576000000003 161.20531 78.45466000000003 160.41458 85.58077000000003 C 159.51887 93.65234000000002 153.01581 100.18472000000003 144.95036 101.11315000000003 C 141.36891 101.52691000000003 137.81062 100.87934000000003 134.67224 99.24061000000003 C 132.23326 97.96863000000003 129.35390999999998 97.79276000000003 126.77176999999999 98.75868000000003 C 124.17326999999999 99.73073000000002 122.09965 101.76959000000002 121.08397 104.35377000000003 C 119.25439 109.00612000000002 121.15759 114.24198000000003 125.50932999999999 116.53373000000002 C 131.96468 119.93318000000002 139.27756 121.34422000000002 146.64087999999998 120.61348000000002 C 164.29733 118.85957000000002 178.29733 104.75936000000003 179.93059999999997 87.08588000000003 C 181.28981999999996 72.39399000000003 173.88286999999997 58.246750000000034 161.06078999999997 51.04430000000003 C 158.99944999999997 49.885470000000026 158.15007999999997 47.452620000000024 159.09623999999997 45.361270000000026 C 159.60203999999996 44.246070000000024 160.55907999999997 43.38581000000003 161.72199999999998 42.999990000000025 C 162.85356 42.627120000000026 164.03420999999997 42.732100000000024 165.05124999999998 43.294470000000025 C 180.77586 51.99113000000003 190.04373999999999 69.21880000000003 188.66405999999998 87.18404000000002 C 186.92173999999997 109.88752000000002 168.45273999999998 128.04634000000001 145.70564 129.42467000000002 C 142.96126999999998 129.59099000000003 140.20326 129.51601000000002 137.5066 129.20517 C 132.36957999999998 128.61621000000002 127.75744999999999 132.13086 126.95445 137.20517 C 126.54682 139.78185000000002 127.21620999999999 142.44988 128.79085 144.52759 C 130.35459 146.5903 132.61771000000002 147.89092 135.16442 148.18949 C 137.70156 148.48806000000002 140.27961000000002 148.63802 142.8563 148.63802 C 143.6893 148.63803 144.52365 148.62167 145.35529 148.59032 z" stroke-linecap="round" />
</g>
</g>
</g>
		<g transform="matrix(-0.4413431870255409 0.309031826492782 -0.309031826492782 -0.4413431870255409 13.398276744895554 45.44330607933716)"  >
<g style=""  paint-order="stroke"   >
		<g transform="matrix(1 0 0 1 0 0)"  >
<linearGradient id="SVGID_15_461347" gradientUnits="userSpaceOnUse" gradientTransform="matrix(1 0 0 1 0.00000152428118838088 0)"  x1="124.99999923785938" y1="0" x2="124.99999923785941" y2="89.23646">
<stop offset="0%" style="stop-color:rgb(27,195,153);stop-opacity: 1"/>
<stop offset="12%" style="stop-color:rgb(23,113,101);stop-opacity: 1"/>
<stop offset="56.499999999999964%" style="stop-color:rgb(24,102,98);stop-opacity: 1"/>
<stop offset="82%" style="stop-color:rgb(27,195,153);stop-opacity: 1"/>
</linearGradient>
<path style="stroke: none; stroke-width: 1; stroke-dasharray: none; stroke-linecap: butt; stroke-dashoffset: 0; stroke-linejoin: miter; stroke-miterlimit: 4; fill: url(#SVGID_15_461347); fill-rule: nonzero; opacity: 1;"  paint-order="stroke"  transform=" translate(-125.00000076214059, -44.61823)" d="M 250 73.65373 C 241.66759 79.95082 232.57123 82.79625 223.11739 83.26847 C 224.88602 78.11672999999999 220.65081 68.07987 218.72487 65.19677999999999 C 215.18138000000002 59.89223999999999 210.12557 55.82184999999999 205.36705 51.573289999999986 C 200.60853 47.32472999999998 195.95114 42.63360999999999 193.61795 36.696449999999984 C 191.48352 41.484749999999984 190.84163 46.92583999999999 191.80334000000002 52.079379999999986 C 176.53956000000002 46.734129999999986 169.78636000000003 39.067649999999986 164.90477 29.893689999999985 C 161.23341000000002 39.66675999999998 163.56335 51.05081999999999 169.41759000000002 59.69491999999998 C 175.23072000000002 68.27826999999998 184.1451 74.38322999999998 193.67379000000003 78.47455999999998 C 173.00506000000001 71.56944999999999 152.56590000000003 58.83339999999998 136.18862000000001 50.34340999999998 C 132.25570000000002 48.28036999999998 128.26382 46.25726999999998 124.21796000000002 44.32476999999998 C 124.27961000000002 42.55785999999998 124.46033000000001 40.72597999999998 124.39177000000002 39.85720999999998 C 124.13758000000003 36.63423999999998 123.51366000000002 33.43966999999998 122.55222000000002 30.35345999999998 C 120.62898000000001 24.180079999999982 117.34878000000002 18.42128999999998 112.93389000000002 13.689659999999982 C 105.12897 5.32479 93.88064 0.2745 82.44335 0 C 88.03165 2.83534 92.72403 7.40601 95.70510999999999 12.91788 C 86.42985 5.39887 74.7475 0.89697 62.825 0.2472 C 50.9025 -0.40257000000000004 38.80012 2.80313 28.76264 9.26968 C 39.47573 5.684779999999999 51.2542 10.028009999999998 60.857600000000005 15.97748 C 68.56071 20.74967 75.68054 26.616 83.6435 30.8293 C 81.35295 30.48099 79.0483 30.19757 76.72291 30.01651 C 68.38206 29.34339 59.67722 29.98064 51.378389999999996 32.03961 C 49.80132 32.24604 48.23309999999999 32.62635 46.94275999999999 32.872580000000006 C 35.230149999999995 35.107780000000005 23.740549999999992 39.75826000000001 14.81606999999999 47.83325000000001 C 3.46767 58.10155 -2.97123 74.55679 1.35673 89.23646 C 4.99933 78.33063 14.67862 70.37733999999999 25.145889999999998 65.61910999999999 C 30.409719999999997 63.22633999999999 35.9531 61.490109999999994 41.212239999999994 59.08690999999999 C 46.47129999999999 56.68377999999999 51.54709 53.51007999999999 55.01181 48.88100999999999 C 57.566289999999995 45.46812999999999 60.38954 39.20192999999999 58.592769999999994 34.87728999999999 C 58.49925999999999 34.652199999999986 58.38813999999999 34.454759999999986 58.27542 34.25992999999999 C 74.25972999999999 32.77359999999999 91.09334 36.12850999999999 105.69554 42.20353999999999 C 114.95388 45.71801999999999 124.06522 50.26103999999999 133.16848 55.08644999999999 C 126.70097999999999 53.66369999999999 120.07921999999999 53.00930999999999 113.41633999999999 53.36562999999999 C 93.36142 54.43833999999999 73.18992 65.87492999999999 65.45550999999999 84.40944999999999 C 78.18776 76.31282999999999 94.62722 76.21773999999999 109.22645999999999 80.02932 C 116.56812999999998 81.94606 123.65146999999999 84.76302 130.99686 86.66531 C 138.34233 88.56768000000001 146.13832 89.53341 153.49727 87.68384 C 158.92269 86.32018000000001 166.98226 82.27225 168.72933999999998 76.38049000000001 C 169.01523999999998 75.41635000000001 169.05103999999997 74.53542 168.92837999999998 73.71267 C 184.69367999999997 81.0099 200.95416999999998 86.34713 218.37568 86.15708000000001 C 218.96060999999997 86.19971000000001 219.50851 86.19094000000001 220.00084999999999 86.11485 C 220.53222 86.09854 221.05972999999997 86.1002 221.59332999999998 86.07338 C 232.07434 85.16019 242.57312 81.25739 250 73.65373 z M 52.01447 3.14986 C 79.57726 -0.28306999999999993 96.88813 26.51669 117.76440000000001 39.66124 C 105.63920000000002 35.12243 96.04644 25.995669999999997 85.91235 18.285999999999998 C 75.99554 10.64495 64.89358 3.8612 52.01447 3.14986 z M 2.97886 78.08487 C 7.53619 54.71437999999999 31.53302 42.53563 52.221109999999996 35.76962999999999 C 32.94416 46.0606 11.10968 56.19048 2.97886 78.08487 z M 76.33273 74.39106 C 100.30516 54.35791 134.81321 61.79392 161.50032 72.01867999999999 C 133.13365 66.56528 103.03096 58.76493 76.33273 74.39106 z M 168.51924 42.58455 C 176.57971 61.77525 194.83482 73.95235 213.75026 80.97964 C 193.91519 78.68094 172.02107 63.10118 168.51924 42.58455 z" stroke-linecap="round" />
</g>
</g>
</g>
		<g transform="matrix(0.06192838229482743 0 0 0.06192838229482743 -31.926506679030922 -61.89475286032601)"  >
<g style=""  paint-order="stroke"   >
		<g transform="matrix(1 0 0 1 0 0)"  >
<path style="stroke: none; stroke-width: 1; stroke-dasharray: none; stroke-linecap: butt; stroke-dashoffset: 0; stroke-linejoin: miter; stroke-miterlimit: 4; fill: rgb(37,218,173); fill-rule: nonzero; opacity: 1;"  paint-order="stroke"  transform=" translate(-150, -150)" d="M 148 300 L 148 300 C 150 218 218 152 300 152 L 300 152 C 218 150 152 82 152 0 L 152 0 C 150 82 82 148 0 148 L 0 148 C 84 150 150 216 148 300 Z" stroke-linecap="round" />
</g>
</g>
</g>
		<g transform="matrix(0.043248399408116235 0 0 0.043248399408116235 -65.19713852800584 -89.98149443454673)"  >
<g style=""  paint-order="stroke"   >
		<g transform="matrix(1 0 0 1 0 0)"  >
<path style="stroke: none; stroke-width: 1; stroke-dasharray: none; stroke-linecap: butt; stroke-dashoffset: 0; stroke-linejoin: miter; stroke-miterlimit: 4; fill: rgb(255,255,255); fill-rule: nonzero; opacity: 1;"  paint-order="stroke"  transform=" translate(-150, -150)" d="M 148 300 L 148 300 C 150 218 218 152 300 152 L 300 152 C 218 150 152 82 152 0 L 152 0 C 150 82 82 148 0 148 L 0 148 C 84 150 150 216 148 300 Z" stroke-linecap="round" />
</g>
</g>
</g>
</g>
</g>
<g transform="matrix(1.9211538461538462 0 0 1.9211538461538462 639.9001000000002 654.6629919420245)" id="text-logo"  >
<g style=""  paint-order="stroke"   >
		<g transform="matrix(1 0 0 1 0 0)" id="text-logo-path-0"  >
<linearGradient id="SVGID_461348" gradientUnits="userSpaceOnUse" gradientTransform="matrix(1 0 0 1 1.8700000000000045 -36.82)"  x1="-1.8199958343506353" y1="-8.899280000000033" x2="-1.8199958343506353" y2="50.10071999999997">
<stop offset="0%" style="stop-color:rgb(66,230,149);stop-opacity: 1"/>
<stop offset="100%" style="stop-color:rgb(59,178,184);stop-opacity: 1"/>
</linearGradient>
<path style="stroke: none; stroke-width: 0; stroke-dasharray: none; stroke-linecap: butt; stroke-dashoffset: 0; stroke-linejoin: miter; stroke-miterlimit: 4; fill: url(#SVGID_461348); fill-rule: nonzero; opacity: 1;"  paint-order="stroke"  transform=" translate(-211.615, 18.2)" d="M 7.38 -11.02 C 7.38 -11.49 7.23 -11.65 6.76 -11.65 L 2.5 -11.65 C 2.03 -11.65 1.87 -11.49 1.87 -11.02 C 2.03 -3.12 5.67 0.42 12.64 0.42 C 18.88 0.42 23.45 -2.81 23.45 -9.46 C 23.45 -20.38 7.38 -20.75 7.38 -27.56 C 7.38 -30.32 9.1 -31.72 12.53 -31.72 C 16.12 -31.72 17.84 -30.37 17.94 -25.48 C 17.94 -25.01 18.1 -24.86 18.56 -24.86 L 22.83 -24.86 C 23.3 -24.86 23.45 -25.01 23.45 -25.48 C 23.24 -33.38 19.24 -36.82 12.64 -36.82 C 5.93 -36.82 1.98 -32.92 1.98 -27.04 C 1.98 -16.48 17.94 -16.48 17.94 -9.46 C 17.94 -6.81 16.28 -4.68 12.64 -4.68 C 9.2 -4.68 7.54 -6.55 7.38 -11.02 Z M 35.46 -32.03 C 35.46 -31.56 35.62 -31.41 36.09 -31.41 L 44.15 -31.41 L 44.15 -0.62 C 44.15 -0.16 44.3 0 44.77 0 L 49.04 0 C 49.5 0 49.66 -0.16 49.66 -0.62 L 49.66 -31.41 L 57.72 -31.41 C 58.19 -31.41 58.34 -31.56 58.34 -32.03 L 58.34 -35.78 C 58.34 -36.24 58.19 -36.4 57.72 -36.4 L 36.09 -36.4 C 35.62 -36.4 35.46 -36.24 35.46 -35.78 Z M 87.36 -0.57 C 87.57 -0.16 87.78 0 88.24 0 L 92.98 0 C 93.44 0 93.55 -0.16 93.34 -0.57 L 86.22 -16.07 C 89.91 -17.47 92.51 -20.7 92.51 -26.16 L 92.51 -27.09 C 92.51 -32.81 88.45 -36.4 81.17 -36.4 L 71.6 -36.4 C 71.14 -36.4 70.98 -36.24 70.98 -35.78 L 70.98 -0.62 C 70.98 -0.16 71.14 0 71.6 0 L 75.87 0 C 76.34 0 76.49 -0.16 76.49 -0.62 L 76.49 -15.24 L 80.65 -15.24 Z M 76.49 -31.3 L 80.7 -31.3 C 85.02 -31.3 87 -29.64 87 -26.68 L 87 -25.84 C 87 -22.46 85.02 -20.85 80.91 -20.85 L 76.49 -20.85 Z M 103.9 -22.88 L 103.9 -13.57 C 103.9 -4.47 109.46 0.42 116.22 0.42 C 122.98 0.42 128.54 -4.47 128.54 -13.57 L 128.54 -22.88 C 128.54 -31.93 122.98 -36.82 116.22 -36.82 C 109.46 -36.82 103.9 -31.93 103.9 -22.88 Z M 109.41 -22.62 C 109.41 -28.86 111.75 -31.72 116.22 -31.72 C 120.64 -31.72 123.03 -28.86 123.03 -22.62 L 123.03 -13.83 C 123.03 -7.54 120.64 -4.68 116.22 -4.68 C 111.75 -4.68 109.41 -7.54 109.41 -13.83 Z M 142.43 -0.62 C 142.43 -0.21 142.64 0 143.05 0 L 146.8 0 C 147.21 0 147.42 -0.21 147.42 -0.62 L 147.42 -26.05 L 158.65 -0.57 C 158.81 -0.21 159.12 0 159.54 0 L 162.34 0 C 162.76 0 162.97 -0.21 162.97 -0.62 L 162.97 -35.78 C 162.97 -36.19 162.76 -36.4 162.34 -36.4 L 158.6 -36.4 C 158.18 -36.4 157.98 -36.19 157.98 -35.78 L 157.98 -14.09 L 148.41 -35.83 C 148.25 -36.19 147.94 -36.4 147.52 -36.4 L 143.05 -36.4 C 142.64 -36.4 142.43 -36.19 142.43 -35.78 Z M 200.36 -24.44 C 200.1 -32.4 195.21 -36.82 188.6 -36.82 C 181.84 -36.82 176.85 -32.6 176.85 -23.14 L 176.85 -13.31 C 176.85 -3.8 181.84 0.42 188.6 0.42 C 195.36 0.42 200.36 -4.26 200.36 -12.69 L 200.36 -16.43 C 200.36 -16.9 200.2 -17.06 199.73 -17.06 L 189.12 -17.06 C 188.66 -17.06 188.5 -16.9 188.5 -16.43 L 188.5 -12.69 C 188.5 -12.22 188.66 -12.06 189.12 -12.06 L 194.74 -12.06 C 194.58 -7.02 192.5 -4.68 188.55 -4.68 C 184.39 -4.68 182.36 -7.18 182.36 -13.68 L 182.36 -22.78 C 182.36 -29.22 184.39 -31.72 188.55 -31.72 C 192.56 -31.72 194.58 -29.38 194.74 -24.44 C 194.74 -23.97 194.9 -23.82 195.36 -23.82 L 199.73 -23.82 C 200.2 -23.82 200.36 -23.97 200.36 -24.44 Z M 214.24 -0.62 C 214.24 -0.16 214.4 0 214.86 0 L 232.91 0 C 233.38 0 233.53 -0.16 233.53 -0.62 L 233.53 -4.37 C 233.53 -4.84 233.38 -4.99 232.91 -4.99 L 219.75 -4.99 L 219.75 -16.74 L 231.35 -16.74 C 231.82 -16.74 231.97 -16.9 231.97 -17.37 L 231.97 -21.11 C 231.97 -21.58 231.82 -21.74 231.35 -21.74 L 219.75 -21.74 L 219.75 -31.41 L 232.91 -31.41 C 233.38 -31.41 233.53 -31.56 233.53 -32.03 L 233.53 -35.78 C 233.53 -36.24 233.38 -36.4 232.91 -36.4 L 214.86 -36.4 C 214.4 -36.4 214.24 -36.24 214.24 -35.78 Z M 263.8 -0.57 C 264 -0.16 264.21 0 264.68 0 L 269.41 0 C 269.88 0 269.98 -0.16 269.78 -0.57 L 262.65 -16.07 C 266.34 -17.47 268.94 -20.7 268.94 -26.16 L 268.94 -27.09 C 268.94 -32.81 264.89 -36.4 257.61 -36.4 L 248.04 -36.4 C 247.57 -36.4 247.42 -36.24 247.42 -35.78 L 247.42 -0.62 C 247.42 -0.16 247.57 0 248.04 0 L 252.3 0 C 252.77 0 252.93 -0.16 252.93 -0.62 L 252.93 -15.24 L 257.09 -15.24 Z M 252.93 -31.3 L 257.14 -31.3 C 261.46 -31.3 263.43 -29.64 263.43 -26.68 L 263.43 -25.84 C 263.43 -22.46 261.46 -20.85 257.35 -20.85 L 252.93 -20.85 Z M 299.94 -0.62 C 299.94 -0.16 300.09 0 300.56 0 L 304.1 0 C 304.56 0 304.72 -0.16 304.72 -0.62 L 304.72 -25.58 L 311.64 -4.73 C 311.79 -4.32 312 -4.16 312.47 -4.16 L 315.07 -4.16 C 315.54 -4.16 315.74 -4.32 315.9 -4.73 L 322.87 -25.74 L 322.87 -0.62 C 322.87 -0.16 323.02 0 323.49 0 L 327.03 0 C 327.5 0 327.65 -0.16 327.65 -0.62 L 327.65 -35.78 C 327.65 -36.24 327.5 -36.4 327.03 -36.4 L 322.66 -36.4 C 322.19 -36.4 321.98 -36.24 321.83 -35.83 L 314.03 -12.32 L 306.23 -35.83 C 306.07 -36.24 305.86 -36.4 305.4 -36.4 L 300.56 -36.4 C 300.09 -36.4 299.94 -36.24 299.94 -35.78 Z M 342.16 -0.62 C 342.16 -0.16 342.32 0 342.78 0 L 347.05 0 C 347.52 0 347.67 -0.16 347.67 -0.62 L 347.67 -35.78 C 347.67 -36.24 347.52 -36.4 347.05 -36.4 L 342.78 -36.4 C 342.32 -36.4 342.16 -36.24 342.16 -35.78 Z M 362.18 -0.62 C 362.18 -0.21 362.39 0 362.8 0 L 366.55 0 C 366.96 0 367.17 -0.21 367.17 -0.62 L 367.17 -26.05 L 378.4 -0.57 C 378.56 -0.21 378.87 0 379.29 0 L 382.1 0 C 382.51 0 382.72 -0.21 382.72 -0.62 L 382.72 -35.78 C 382.72 -36.19 382.51 -36.4 382.1 -36.4 L 378.35 -36.4 C 377.94 -36.4 377.73 -36.19 377.73 -35.78 L 377.73 -14.09 L 368.16 -35.83 C 368 -36.19 367.69 -36.4 367.28 -36.4 L 362.8 -36.4 C 362.39 -36.4 362.18 -36.19 362.18 -35.78 Z M 397.23 -0.62 C 397.23 -0.16 397.38 0 397.85 0 L 407.73 0 C 415.64 0 421.36 -5.41 421.36 -14.66 L 421.36 -21.68 C 421.36 -30.99 415.64 -36.4 407.73 -36.4 L 397.85 -36.4 C 397.38 -36.4 397.23 -36.24 397.23 -35.78 Z M 402.74 -31.3 L 407.78 -31.3 C 413.3 -31.3 415.84 -27.72 415.84 -21.42 L 415.84 -14.92 C 415.84 -8.68 413.3 -5.1 407.78 -5.1 L 402.74 -5.1 Z" stroke-linecap="round" />
</g>
</g>
</g>
<g transform="matrix(1.9211538461538462 0 0 1.9211538461538462 641.014369230769 751.1760173744274)" id="tagline-ed74d409-a4d4-453a-ba4a-ed0ea83f14e0-logo"  >
<g style=""  paint-order="stroke"   >
		<g transform="matrix(1 0 0 1 0 0)" id="tagline-ed74d409-a4d4-453a-ba4a-ed0ea83f14e0-logo-path-0"  >
<path style="stroke: none; stroke-width: 0; stroke-dasharray: none; stroke-linecap: butt; stroke-dashoffset: 0; stroke-linejoin: miter; stroke-miterlimit: 4; fill: rgb(27,195,153); fill-rule: nonzero; opacity: 1;"  paint-order="stroke"  transform=" translate(-172.41500000000002, 6.59)" d="M 7.63 -8.71 C 9.43 -9.12 10.49 -10.27 10.49 -12.34 C 10.49 -14.98 8.64 -16.42 5.33 -16.42 L 2.33 -16.42 L 2.33 0 L 6.07 0 C 9.26 0 11.16 -1.58 11.16 -4.51 C 11.16 -7.32 9.62 -8.45 7.63 -8.71 Z M 5.47 -15.46 C 7.99 -15.46 9.36 -14.42 9.36 -12.26 C 9.36 -10.34 8.18 -9.12 6.07 -9.12 L 3.43 -9.12 L 3.43 -15.46 Z M 6.1 -0.96 L 3.43 -0.96 L 3.43 -8.18 L 6.19 -8.18 C 8.62 -8.18 10.01 -7.03 10.01 -4.51 C 10.01 -2.06 8.54 -0.96 6.1 -0.96 Z M 24.98 -16.42 L 23.88 -16.42 L 23.88 -4.61 C 23.88 -2.33 22.87 -0.74 20.42 -0.74 C 17.98 -0.74 16.94 -2.26 16.94 -4.61 L 16.94 -16.42 L 15.84 -16.42 L 15.84 -4.51 C 15.84 -1.82 17.28 0.26 20.42 0.26 C 23.54 0.26 24.98 -1.82 24.98 -4.51 Z M 31.97 -16.42 L 30.86 -16.42 L 30.86 0 L 31.97 0 Z M 39.19 -16.42 L 38.09 -16.42 L 38.09 0 L 44.95 0 L 45.1 -1.03 L 39.19 -1.03 Z M 52.08 -16.42 L 49.27 -16.42 L 49.27 0 L 52.25 0 C 55.18 0 58.54 -1.49 58.54 -8.35 C 58.54 -15.1 55.32 -16.42 52.08 -16.42 Z M 52.18 -15.43 C 54.67 -15.43 57.36 -14.57 57.36 -8.35 C 57.36 -2.26 54.82 -0.96 52.3 -0.96 L 50.38 -0.96 L 50.38 -15.43 Z M 64.87 -16.42 L 63.77 -16.42 L 63.77 0 L 64.87 0 Z M 80.16 -16.42 L 79.1 -16.42 L 79.1 -6.05 C 79.1 -3.86 79.2 -2.09 79.25 -1.27 L 72.43 -16.42 L 70.99 -16.42 L 70.99 0 L 72.05 0 L 72.05 -9.82 C 72.05 -12.72 71.98 -14.11 71.9 -15.14 L 78.7 0 L 80.16 0 Z M 91.22 -16.66 C 88.3 -16.66 85.37 -13.97 85.37 -8.28 C 85.37 -2.59 87.7 0.26 91.25 0.26 C 92.69 0.26 94.1 -0.22 95.3 -1.06 L 95.3 -8.76 L 91.3 -8.76 L 91.44 -7.78 L 94.22 -7.78 L 94.22 -1.61 C 93.34 -1.03 92.45 -0.72 91.22 -0.72 C 88.39 -0.72 86.54 -3.07 86.54 -8.28 C 86.54 -13.68 88.94 -15.67 91.22 -15.67 C 92.52 -15.67 93.38 -15.29 94.39 -14.4 L 95.04 -15.1 C 93.91 -16.15 92.86 -16.66 91.22 -16.66 Z M 116.86 0 L 112.94 -7.78 C 114.96 -8.33 116.14 -9.72 116.14 -12.02 C 116.14 -14.78 114.58 -16.42 110.81 -16.42 L 107.78 -16.42 L 107.78 0 L 108.89 0 L 108.89 -7.51 L 111.43 -7.51 C 111.58 -7.54 111.72 -7.54 111.84 -7.56 L 115.58 0 Z M 110.95 -8.47 L 108.89 -8.47 L 108.89 -15.46 L 110.74 -15.46 C 113.9 -15.46 114.96 -14.23 114.96 -12.02 C 114.96 -9.58 113.62 -8.47 110.95 -8.47 Z M 128.45 -16.42 L 121.37 -16.42 L 121.37 0 L 128.57 0 L 128.57 -0.96 L 122.47 -0.96 L 122.47 -8.09 L 127.54 -8.09 L 127.54 -9.05 L 122.47 -9.05 L 122.47 -15.43 L 128.33 -15.43 Z M 136.46 -16.66 C 133.99 -16.66 132.34 -14.88 132.34 -12.72 C 132.34 -10.58 133.44 -9.36 136.32 -8.3 C 138.86 -7.37 139.7 -6.46 139.7 -4.42 C 139.7 -2.21 138.31 -0.72 136.2 -0.72 C 134.54 -0.72 133.46 -1.44 132.43 -2.42 L 131.76 -1.78 C 132.94 -0.55 134.3 0.26 136.22 0.26 C 138.98 0.26 140.86 -1.78 140.86 -4.44 C 140.86 -7.1 139.46 -8.28 136.8 -9.24 C 134.3 -10.15 133.46 -11.02 133.46 -12.74 C 133.46 -14.42 134.64 -15.67 136.46 -15.67 C 137.81 -15.67 138.72 -15.24 139.78 -14.21 L 140.42 -14.88 C 139.34 -15.98 138.24 -16.66 136.46 -16.66 Z M 146.93 -16.42 L 145.82 -16.42 L 145.82 0 L 146.93 0 Z M 154.15 -16.42 L 153.05 -16.42 L 153.05 0 L 159.91 0 L 160.06 -1.03 L 154.15 -1.03 Z M 165.34 -16.42 L 164.23 -16.42 L 164.23 0 L 165.34 0 Z M 178.54 -16.42 L 171.46 -16.42 L 171.46 0 L 178.66 0 L 178.66 -0.96 L 172.56 -0.96 L 172.56 -8.09 L 177.62 -8.09 L 177.62 -9.05 L 172.56 -9.05 L 172.56 -15.43 L 178.42 -15.43 Z M 192.5 -16.42 L 191.45 -16.42 L 191.45 -6.05 C 191.45 -3.86 191.54 -2.09 191.59 -1.27 L 184.78 -16.42 L 183.34 -16.42 L 183.34 0 L 184.39 0 L 184.39 -9.82 C 184.39 -12.72 184.32 -14.11 184.25 -15.14 L 191.04 0 L 192.5 0 Z M 203.45 -16.66 C 200.28 -16.66 197.71 -14.06 197.71 -8.21 C 197.71 -2.5 200.16 0.26 203.42 0.26 C 205.1 0.26 206.28 -0.46 207.17 -1.37 L 206.52 -2.09 C 205.73 -1.34 204.91 -0.77 203.45 -0.77 C 200.88 -0.77 198.89 -2.95 198.89 -8.21 C 198.89 -13.73 200.95 -15.67 203.5 -15.67 C 204.7 -15.67 205.46 -15.29 206.4 -14.5 L 207.02 -15.19 C 206.02 -16.1 205.01 -16.66 203.45 -16.66 Z M 218.52 -16.42 L 211.44 -16.42 L 211.44 0 L 218.64 0 L 218.64 -0.96 L 212.54 -0.96 L 212.54 -8.09 L 217.61 -8.09 L 217.61 -9.05 L 212.54 -9.05 L 212.54 -15.43 L 218.4 -15.43 Z M 223.22 -1.61 C 222.7 -1.61 222.31 -1.2 222.31 -0.67 C 222.31 -0.31 222.5 -0.02 222.84 0.14 L 221.98 3.48 L 222.72 3.48 L 223.82 0.48 C 223.99 0.02 224.14 -0.31 224.14 -0.67 C 224.14 -1.2 223.78 -1.61 223.22 -1.61 Z M 244.03 -16.42 L 234.41 -16.42 L 234.41 -15.41 L 238.61 -15.41 L 238.61 0 L 239.74 0 L 239.74 -15.41 L 243.91 -15.41 Z M 252.22 -16.66 C 248.83 -16.66 246.48 -13.8 246.48 -8.16 C 246.48 -2.52 248.81 0.26 252.22 0.26 C 255.72 0.26 257.93 -2.62 257.93 -8.18 C 257.93 -13.94 255.65 -16.66 252.22 -16.66 Z M 252.22 -15.67 C 254.98 -15.67 256.78 -13.44 256.78 -8.18 C 256.78 -3 255.05 -0.72 252.22 -0.72 C 249.53 -0.72 247.66 -3 247.66 -8.16 C 247.66 -13.42 249.5 -15.67 252.22 -15.67 Z M 268.1 -16.66 C 265.18 -16.66 262.25 -13.97 262.25 -8.28 C 262.25 -2.59 264.58 0.26 268.13 0.26 C 269.57 0.26 270.98 -0.22 272.18 -1.06 L 272.18 -8.76 L 268.18 -8.76 L 268.32 -7.78 L 271.1 -7.78 L 271.1 -1.61 C 270.22 -1.03 269.33 -0.72 268.1 -0.72 C 265.27 -0.72 263.42 -3.07 263.42 -8.28 C 263.42 -13.68 265.82 -15.67 268.1 -15.67 C 269.4 -15.67 270.26 -15.29 271.27 -14.4 L 271.92 -15.1 C 270.79 -16.15 269.74 -16.66 268.1 -16.66 Z M 284.47 -16.42 L 277.39 -16.42 L 277.39 0 L 284.59 0 L 284.59 -0.96 L 278.5 -0.96 L 278.5 -8.09 L 283.56 -8.09 L 283.56 -9.05 L 278.5 -9.05 L 278.5 -15.43 L 284.35 -15.43 Z M 296.86 -16.42 L 287.23 -16.42 L 287.23 -15.41 L 291.43 -15.41 L 291.43 0 L 292.56 0 L 292.56 -15.41 L 296.74 -15.41 Z M 308.86 0 L 309.96 0 L 309.96 -16.42 L 308.86 -16.42 L 308.86 -9.12 L 301.94 -9.12 L 301.94 -16.42 L 300.84 -16.42 L 300.84 0 L 301.94 0 L 301.94 -8.16 L 308.86 -8.16 Z M 323.16 -16.42 L 316.08 -16.42 L 316.08 0 L 323.28 0 L 323.28 -0.96 L 317.18 -0.96 L 317.18 -8.09 L 322.25 -8.09 L 322.25 -9.05 L 317.18 -9.05 L 317.18 -15.43 L 323.04 -15.43 Z M 337.03 0 L 333.12 -7.78 C 335.14 -8.33 336.31 -9.72 336.31 -12.02 C 336.31 -14.78 334.75 -16.42 330.98 -16.42 L 327.96 -16.42 L 327.96 0 L 329.06 0 L 329.06 -7.51 L 331.61 -7.51 C 331.75 -7.54 331.9 -7.54 332.02 -7.56 L 335.76 0 Z M 331.13 -8.47 L 329.06 -8.47 L 329.06 -15.46 L 330.91 -15.46 C 334.08 -15.46 335.14 -14.23 335.14 -12.02 C 335.14 -9.58 333.79 -8.47 331.13 -8.47 Z M 341.59 -1.61 C 341.02 -1.61 340.66 -1.18 340.66 -0.67 C 340.66 -0.19 341.02 0.26 341.59 0.26 C 342.14 0.26 342.5 -0.19 342.5 -0.67 C 342.5 -1.18 342.14 -1.61 341.59 -1.61 Z" stroke-linecap="round" />
</g>
</g>
</g>
</svg>