<?xml version="1.0" encoding="UTF-8" standalone="no" ?>
<!DOCTYPE svg PUBLIC "-//W3C//DTD SVG 1.1//EN" "http://www.w3.org/Graphics/SVG/1.1/DTD/svg11.dtd">
<svg xmlns="http://www.w3.org/2000/svg" xmlns:xlink="http://www.w3.org/1999/xlink" version="1.1" width="1280" height="1024" viewBox="0 0 1280 1024" xml:space="preserve">
<desc>Created with Fabric.js 5.3.0</desc>
<defs>
</defs>
<g transform="matrix(1 0 0 1 640 512)" id="background-logo"  >
<rect style="stroke: none; stroke-width: 0; stroke-dasharray: none; stroke-linecap: butt; stroke-dashoffset: 0; stroke-linejoin: miter; stroke-miterlimit: 4; fill: rgb(255,255,255); fill-opacity: 0; fill-rule: nonzero; opacity: 1;"  paint-order="stroke"  x="-640" y="-512" rx="0" ry="0" width="1280" height="1024" />
</g>
<g transform="matrix(1.9211538461538462 0 0 1.9211538461538462 640 863.2623968564028)" id="text-logo"  >
<g style=""  paint-order="stroke"   >
		<g transform="matrix(1 0 0 1 0 0)" id="text-logo-path-0"  >
<path style="stroke: none; stroke-width: 0; stroke-dasharray: none; stroke-linecap: butt; stroke-dashoffset: 0; stroke-linejoin: miter; stroke-miterlimit: 4; fill: rgb(137,216,207); fill-rule: nonzero; opacity: 1;"  paint-order="stroke"  transform=" translate(-133.76, 15.488749999999998)" d="M 16.28 -1.98 L 16.28 -25.96 L 23.54 -25.96 C 24.86 -25.96 25.96 -27.06 25.96 -28.38 C 25.96 -29.7 24.86 -30.8 23.54 -30.8 L 4.18 -30.8 C 2.86 -30.8 1.76 -29.7 1.76 -28.38 C 1.76 -27.06 2.86 -25.96 4.18 -25.96 L 11.44 -25.96 L 11.44 -1.98 C 11.44 -0.66 12.54 0.44 13.86 0.44 C 15.18 0.44 16.28 -0.66 16.28 -1.98 Z M 38.28 -28.82 L 38.28 -1.98 C 38.28 -0.66 39.38 0.44 40.7 0.44 C 42.02 0.44 43.12 -0.66 43.12 -1.98 L 43.12 -12.98 L 60.28 -12.98 L 60.28 -1.98 C 60.28 -0.66 61.38 0.44 62.7 0.44 C 64.02 0.44 65.12 -0.66 65.12 -1.98 L 65.12 -28.82 C 65.12 -30.14 64.02 -31.24 62.7 -31.24 C 61.38 -31.24 60.28 -30.14 60.28 -28.82 L 60.28 -17.82 L 43.12 -17.82 L 43.12 -28.82 C 43.12 -30.14 42.02 -31.24 40.7 -31.24 C 39.38 -31.24 38.28 -30.14 38.28 -28.82 Z M 98.78 -4.84 L 82.28 -4.84 L 82.28 -12.98 L 94.38 -12.98 C 95.7 -12.98 96.8 -14.08 96.8 -15.4 C 96.8 -16.72 95.7 -17.82 94.38 -17.82 L 82.28 -17.82 L 82.28 -25.96 L 98.78 -25.96 C 100.1 -25.96 101.2 -27.06 101.2 -28.38 C 101.2 -29.7 100.1 -30.8 98.78 -30.8 L 80.74 -30.8 C 78.94 -30.8 77.44 -29.3 77.44 -27.5 L 77.44 -3.3 C 77.44 -1.5 78.94 0 80.74 0 L 98.78 0 C 100.1 0 101.2 -1.1 101.2 -2.42 C 101.2 -3.74 100.1 -4.84 98.78 -4.84 Z M 136.09 -3.43 L 130.72 -10.69 C 134.33 -12.19 136.88 -15.58 136.88 -20.02 C 136.88 -26 132.09 -30.8 126.1 -30.8 L 116.82 -30.8 C 115.02 -30.8 113.52 -29.3 113.52 -27.5 L 113.52 -1.98 C 113.52 -0.66 114.62 0.44 115.94 0.44 C 117.26 0.44 118.36 -0.66 118.36 -1.98 L 118.36 -9.77 L 125.36 -9.77 L 132.22 -0.53 C 132.66 0.04 133.36 0.44 134.16 0.44 C 135.48 0.44 136.58 -0.66 136.58 -1.98 C 136.58 -2.51 136.4 -3.04 136.09 -3.43 Z M 118.36 -14.61 L 118.36 -25.96 L 126.1 -25.96 C 129.71 -25.96 132.04 -23.63 132.04 -20.02 C 132.04 -16.41 129.84 -14.61 126.1 -14.61 Z M 177.32 -2.99 L 166.85 -29.04 C 165.53 -32.21 161.22 -32.21 159.9 -29.04 L 149.42 -2.99 C 149.29 -2.68 149.2 -2.38 149.2 -2.02 C 149.2 -0.7 150.3 0.4 151.62 0.4 C 152.64 0.4 153.52 -0.22 153.87 -1.06 L 155.72 -5.68 L 171.03 -5.68 L 172.88 -1.06 C 173.23 -0.22 174.11 0.4 175.12 0.4 C 176.44 0.4 177.54 -0.7 177.54 -2.02 C 177.54 -2.38 177.45 -2.68 177.32 -2.99 Z M 157.7 -10.52 L 163.37 -24.68 L 169.05 -10.52 Z M 189.86 -1.98 C 189.86 -0.66 190.96 0.44 192.28 0.44 C 193.6 0.44 194.7 -0.66 194.7 -1.98 L 194.7 -9.11 L 202.44 -9.11 C 208.43 -9.11 213.22 -13.9 213.22 -20.02 C 213.22 -26 208.43 -30.8 202.44 -30.8 L 193.16 -30.8 C 191.36 -30.8 189.86 -29.3 189.86 -27.5 Z M 194.7 -13.95 L 194.7 -25.96 L 202.44 -25.96 C 206.05 -25.96 208.38 -23.63 208.38 -20.02 C 208.38 -16.28 206.05 -13.95 202.44 -13.95 Z M 248.38 -2.99 L 237.91 -29.04 C 236.59 -32.21 232.28 -32.21 230.96 -29.04 L 220.48 -2.99 C 220.35 -2.68 220.26 -2.38 220.26 -2.02 C 220.26 -0.7 221.36 0.4 222.68 0.4 C 223.7 0.4 224.58 -0.22 224.93 -1.06 L 226.78 -5.68 L 242.09 -5.68 L 243.94 -1.06 C 244.29 -0.22 245.17 0.4 246.18 0.4 C 247.5 0.4 248.6 -0.7 248.6 -2.02 C 248.6 -2.38 248.51 -2.68 248.38 -2.99 Z M 228.76 -10.52 L 234.43 -24.68 L 240.11 -10.52 Z M 265.76 -1.98 L 265.76 -28.82 C 265.76 -30.14 264.66 -31.24 263.34 -31.24 C 262.02 -31.24 260.92 -30.14 260.92 -28.82 L 260.92 -1.98 C 260.92 -0.66 262.02 0.44 263.34 0.44 C 264.66 0.44 265.76 -0.66 265.76 -1.98 Z" stroke-linecap="round" />
</g>
</g>
</g>
<g transform="matrix(1.9211538461538462 0 0 1.9211538461538462 640.3198721153847 946.4291735934721)" id="tagline-c76a5aa9-8a14-47a0-b59d-16930c87dab5-logo"  >
<g style=""  paint-order="stroke"   >
		<g transform="matrix(1 0 0 1 0 0)" id="tagline-c76a5aa9-8a14-47a0-b59d-16930c87dab5-logo-path-0"  >
<path style="stroke: none; stroke-width: 0; stroke-dasharray: none; stroke-linecap: butt; stroke-dashoffset: 0; stroke-linejoin: miter; stroke-miterlimit: 4; fill: rgb(60,156,140); fill-rule: nonzero; opacity: 1;"  paint-order="stroke"  transform=" translate(-139.98499999999999, 5.194999999999999)" d="M 0.72 -1.35 C 0.72 -0.61 1.33 0 2.07 0 L 6.88 0 C 9.14 0 10.98 -1.84 10.98 -3.92 C 10.98 -5.24 10.35 -6.43 9.36 -7.16 C 9.83 -7.7 10.1 -8.39 10.1 -9.22 C 10.1 -11.09 8.59 -12.6 6.71 -12.6 L 2.07 -12.6 C 1.33 -12.6 0.72 -11.99 0.72 -11.25 Z M 2.7 -1.98 L 2.7 -6.03 L 6.88 -6.03 C 8.17 -6.03 9 -5.2 9 -3.92 C 9 -2.81 8.17 -1.98 6.88 -1.98 Z M 2.7 -8.01 L 2.7 -10.62 L 6.71 -10.62 C 7.61 -10.62 8.12 -10.12 8.12 -9.22 C 8.12 -8.33 7.69 -8.01 6.71 -8.01 Z M 11.92 -11.79 L 11.92 -5.22 C 11.92 -2.2 14.35 0.27 17.42 0.27 C 20.45 0.27 22.9 -2.18 22.9 -5.22 L 22.9 -11.79 C 22.9 -12.33 22.45 -12.78 21.91 -12.78 C 21.37 -12.78 20.92 -12.33 20.92 -11.79 L 20.92 -5.22 C 20.92 -3.15 19.48 -1.71 17.42 -1.71 C 15.32 -1.71 13.9 -3.15 13.9 -5.22 L 13.9 -11.79 C 13.9 -12.33 13.45 -12.78 12.91 -12.78 C 12.37 -12.78 11.92 -12.33 11.92 -11.79 Z M 25.81 -0.81 L 25.81 -11.79 C 25.81 -12.33 25.36 -12.78 24.82 -12.78 C 24.28 -12.78 23.83 -12.33 23.83 -11.79 L 23.83 -0.81 C 23.83 -0.27 24.28 0.18 24.82 0.18 C 25.36 0.18 25.81 -0.27 25.81 -0.81 Z M 36.04 -1.98 L 32.26 -1.98 C 30.15 -1.98 28.73 -3.42 28.73 -5.49 L 28.73 -11.79 C 28.73 -12.33 28.28 -12.78 27.74 -12.78 C 27.2 -12.78 26.75 -12.33 26.75 -11.79 L 26.75 -5.49 C 26.75 -2.47 29.18 0 32.26 0 L 36.04 0 C 36.58 0 37.03 -0.45 37.03 -0.99 C 37.03 -1.53 36.58 -1.98 36.04 -1.98 Z M 37.96 -11.25 L 37.96 -1.35 C 37.96 -0.61 38.57 0 39.31 0 L 42.19 0 C 45.83 0 48.78 -2.63 48.78 -6.32 C 48.78 -9.97 45.83 -12.6 42.19 -12.6 L 39.31 -12.6 C 38.57 -12.6 37.96 -11.99 37.96 -11.25 Z M 39.94 -1.98 L 39.94 -10.62 L 42.19 -10.62 C 44.93 -10.62 46.8 -8.95 46.8 -6.32 C 46.8 -3.65 44.93 -1.98 42.19 -1.98 Z M 51.7 -0.81 L 51.7 -11.79 C 51.7 -12.33 51.25 -12.78 50.71 -12.78 C 50.17 -12.78 49.72 -12.33 49.72 -11.79 L 49.72 -0.81 C 49.72 -0.27 50.17 0.18 50.71 0.18 C 51.25 0.18 51.7 -0.27 51.7 -0.81 Z M 63.61 -0.81 L 63.61 -7.38 C 63.61 -10.42 61.16 -12.87 58.14 -12.87 C 55.06 -12.87 52.63 -10.4 52.63 -7.38 L 52.63 -0.81 C 52.63 -0.27 53.08 0.18 53.62 0.18 C 54.16 0.18 54.61 -0.27 54.61 -0.81 L 54.61 -7.38 C 54.61 -9.45 56.03 -10.89 58.14 -10.89 C 60.19 -10.89 61.63 -9.45 61.63 -7.38 L 61.63 -0.81 C 61.63 -0.27 62.08 0.18 62.62 0.18 C 63.16 0.18 63.61 -0.27 63.61 -0.81 Z M 71.14 -5.33 L 75.6 -5.33 C 75.19 -3.15 73.44 -1.71 71.14 -1.71 C 68.44 -1.71 66.53 -3.62 66.53 -6.32 C 66.53 -8.98 68.44 -10.89 71.14 -10.89 C 72.54 -10.89 73.62 -10.39 74.48 -9.41 C 74.66 -9.22 74.93 -9.09 75.22 -9.09 C 75.76 -9.09 76.21 -9.54 76.21 -10.08 C 76.21 -10.33 76.12 -10.57 75.96 -10.75 C 74.77 -12.06 73.04 -12.87 71.14 -12.87 C 67.46 -12.87 64.55 -9.95 64.55 -6.32 C 64.55 -2.65 67.46 0.27 71.14 0.27 C 74.59 0.27 77.44 -2.43 77.67 -5.87 C 77.72 -6.64 77.11 -7.31 76.32 -7.31 L 71.14 -7.31 C 70.6 -7.31 70.15 -6.86 70.15 -6.32 C 70.15 -5.78 70.6 -5.33 71.14 -5.33 Z M 75.69 -5.98 L 75.69 -6.01 Z M 92.74 -1.4 L 90.54 -4.37 C 92.02 -4.99 93.06 -6.37 93.06 -8.19 C 93.06 -10.64 91.1 -12.6 88.65 -12.6 L 84.85 -12.6 C 84.11 -12.6 83.5 -11.99 83.5 -11.25 L 83.5 -0.81 C 83.5 -0.27 83.95 0.18 84.49 0.18 C 85.03 0.18 85.48 -0.27 85.48 -0.81 L 85.48 -4 L 88.34 -4 L 91.15 -0.22 C 91.33 0.02 91.62 0.18 91.94 0.18 C 92.48 0.18 92.93 -0.27 92.93 -0.81 C 92.93 -1.03 92.86 -1.24 92.74 -1.4 Z M 85.48 -5.98 L 85.48 -10.62 L 88.65 -10.62 C 90.13 -10.62 91.08 -9.67 91.08 -8.19 C 91.08 -6.71 90.18 -5.98 88.65 -5.98 Z M 102.73 -1.98 L 95.98 -1.98 L 95.98 -5.31 L 100.93 -5.31 C 101.47 -5.31 101.92 -5.76 101.92 -6.3 C 101.92 -6.84 101.47 -7.29 100.93 -7.29 L 95.98 -7.29 L 95.98 -10.62 L 102.73 -10.62 C 103.27 -10.62 103.72 -11.07 103.72 -11.61 C 103.72 -12.15 103.27 -12.6 102.73 -12.6 L 95.35 -12.6 C 94.61 -12.6 94 -11.99 94 -11.25 L 94 -1.35 C 94 -0.61 94.61 0 95.35 0 L 102.73 0 C 103.27 0 103.72 -0.45 103.72 -0.99 C 103.72 -1.53 103.27 -1.98 102.73 -1.98 Z M 112.32 -10.78 C 111.85 -12.01 110.59 -12.87 109.12 -12.87 C 107.26 -12.87 105.68 -11.48 105.68 -9.7 C 105.68 -8.03 106.92 -7.27 108.56 -6.61 C 110.79 -5.69 111.55 -5.2 111.55 -3.85 C 111.55 -2.43 110.66 -1.71 108.9 -1.71 C 107.77 -1.71 106.99 -2.14 106.47 -2.93 C 106.29 -3.19 105.98 -3.37 105.64 -3.37 C 105.1 -3.37 104.65 -2.92 104.65 -2.38 C 104.65 -2.18 104.71 -1.98 104.81 -1.82 C 105.66 -0.58 107.17 0.27 108.9 0.27 C 111.55 0.27 113.53 -1.39 113.53 -3.85 C 113.53 -6.34 111.8 -7.42 109.31 -8.44 C 108.14 -8.93 107.66 -9.14 107.66 -9.7 C 107.66 -10.46 108.14 -10.89 109.12 -10.89 C 109.87 -10.89 110.27 -10.62 110.48 -10.06 C 110.63 -9.7 110.99 -9.43 111.4 -9.43 C 111.94 -9.43 112.39 -9.88 112.39 -10.42 C 112.39 -10.55 112.37 -10.67 112.32 -10.78 Z M 116.44 -0.81 L 116.44 -11.79 C 116.44 -12.33 115.99 -12.78 115.45 -12.78 C 114.91 -12.78 114.46 -12.33 114.46 -11.79 L 114.46 -0.81 C 114.46 -0.27 114.91 0.18 115.45 0.18 C 115.99 0.18 116.44 -0.27 116.44 -0.81 Z M 126.67 -1.98 L 122.89 -1.98 C 120.78 -1.98 119.36 -3.42 119.36 -5.49 L 119.36 -11.79 C 119.36 -12.33 118.91 -12.78 118.37 -12.78 C 117.83 -12.78 117.38 -12.33 117.38 -11.79 L 117.38 -5.49 C 117.38 -2.47 119.81 0 122.89 0 L 126.67 0 C 127.21 0 127.66 -0.45 127.66 -0.99 C 127.66 -1.53 127.21 -1.98 126.67 -1.98 Z M 130.57 -0.81 L 130.57 -11.79 C 130.57 -12.33 130.12 -12.78 129.58 -12.78 C 129.04 -12.78 128.59 -12.33 128.59 -11.79 L 128.59 -0.81 C 128.59 -0.27 129.04 0.18 129.58 0.18 C 130.12 0.18 130.57 -0.27 130.57 -0.81 Z M 140.24 -1.98 L 133.49 -1.98 L 133.49 -5.31 L 138.44 -5.31 C 138.98 -5.31 139.43 -5.76 139.43 -6.3 C 139.43 -6.84 138.98 -7.29 138.44 -7.29 L 133.49 -7.29 L 133.49 -10.62 L 140.24 -10.62 C 140.78 -10.62 141.23 -11.07 141.23 -11.61 C 141.23 -12.15 140.78 -12.6 140.24 -12.6 L 132.86 -12.6 C 132.12 -12.6 131.51 -11.99 131.51 -11.25 L 131.51 -1.35 C 131.51 -0.61 132.12 0 132.86 0 L 140.24 0 C 140.78 0 141.23 -0.45 141.23 -0.99 C 141.23 -1.53 140.78 -1.98 140.24 -1.98 Z M 153.14 -0.81 L 153.14 -7.38 C 153.14 -10.42 150.7 -12.87 147.67 -12.87 C 144.59 -12.87 142.16 -10.4 142.16 -7.38 L 142.16 -0.81 C 142.16 -0.27 142.61 0.18 143.15 0.18 C 143.69 0.18 144.14 -0.27 144.14 -0.81 L 144.14 -7.38 C 144.14 -9.45 145.57 -10.89 147.67 -10.89 C 149.72 -10.89 151.16 -9.45 151.16 -7.38 L 151.16 -0.81 C 151.16 -0.27 151.61 0.18 152.15 0.18 C 152.69 0.18 153.14 -0.27 153.14 -0.81 Z M 164.05 -3.22 C 163.15 -2.23 162.07 -1.71 160.67 -1.71 C 157.97 -1.71 156.06 -3.62 156.06 -6.32 C 156.06 -8.98 157.97 -10.89 160.67 -10.89 C 161.78 -10.89 162.67 -10.57 163.48 -9.9 C 163.66 -9.77 163.87 -9.68 164.11 -9.68 C 164.65 -9.68 165.1 -10.13 165.1 -10.67 C 165.1 -10.98 164.95 -11.27 164.74 -11.45 C 163.62 -12.33 162.2 -12.87 160.67 -12.87 C 157 -12.87 154.08 -9.95 154.08 -6.32 C 154.08 -2.65 157 0.27 160.67 0.27 C 162.59 0.27 164.32 -0.56 165.53 -1.89 C 165.69 -2.07 165.78 -2.3 165.78 -2.56 C 165.78 -3.1 165.33 -3.55 164.79 -3.55 C 164.5 -3.55 164.23 -3.42 164.05 -3.22 Z M 175.45 -1.98 L 168.7 -1.98 L 168.7 -5.31 L 173.65 -5.31 C 174.19 -5.31 174.64 -5.76 174.64 -6.3 C 174.64 -6.84 174.19 -7.29 173.65 -7.29 L 168.7 -7.29 L 168.7 -10.62 L 175.45 -10.62 C 175.99 -10.62 176.44 -11.07 176.44 -11.61 C 176.44 -12.15 175.99 -12.6 175.45 -12.6 L 168.07 -12.6 C 167.33 -12.6 166.72 -11.99 166.72 -11.25 L 166.72 -1.35 C 166.72 -0.61 167.33 0 168.07 0 L 175.45 0 C 175.99 0 176.44 -0.45 176.44 -0.99 C 176.44 -1.53 175.99 -1.98 175.45 -1.98 Z M 178.99 1.94 C 179.35 1.24 179.62 0.63 179.69 -0.77 C 179.71 -1.33 179.26 -1.8 178.7 -1.8 C 178.16 -1.8 177.73 -1.39 177.71 -0.85 C 177.68 0.14 177.55 0.4 177.23 1.04 C 177.16 1.17 177.12 1.33 177.12 1.49 C 177.12 2.03 177.57 2.48 178.11 2.48 C 178.49 2.48 178.83 2.27 178.99 1.94 Z M 191.21 -0.81 L 191.21 -10.62 L 194.18 -10.62 C 194.72 -10.62 195.17 -11.07 195.17 -11.61 C 195.17 -12.15 194.72 -12.6 194.18 -12.6 L 186.26 -12.6 C 185.72 -12.6 185.27 -12.15 185.27 -11.61 C 185.27 -11.07 185.72 -10.62 186.26 -10.62 L 189.23 -10.62 L 189.23 -0.81 C 189.23 -0.27 189.68 0.18 190.22 0.18 C 190.76 0.18 191.21 -0.27 191.21 -0.81 Z M 201.26 -1.71 C 198.56 -1.71 196.65 -3.62 196.65 -6.32 C 196.65 -8.98 198.56 -10.89 201.26 -10.89 C 203.9 -10.89 205.83 -8.98 205.83 -6.32 C 205.83 -3.62 203.9 -1.71 201.26 -1.71 Z M 194.67 -6.32 C 194.67 -2.65 197.59 0.27 201.26 0.27 C 204.86 0.27 207.81 -2.65 207.81 -6.32 C 207.81 -9.95 204.86 -12.87 201.26 -12.87 C 197.59 -12.87 194.67 -9.95 194.67 -6.32 Z M 215.33 -5.33 L 219.8 -5.33 C 219.38 -3.15 217.64 -1.71 215.33 -1.71 C 212.63 -1.71 210.73 -3.62 210.73 -6.32 C 210.73 -8.98 212.63 -10.89 215.33 -10.89 C 216.74 -10.89 217.82 -10.39 218.68 -9.41 C 218.86 -9.22 219.13 -9.09 219.42 -9.09 C 219.96 -9.09 220.41 -9.54 220.41 -10.08 C 220.41 -10.33 220.32 -10.57 220.16 -10.75 C 218.97 -12.06 217.24 -12.87 215.33 -12.87 C 211.66 -12.87 208.75 -9.95 208.75 -6.32 C 208.75 -2.65 211.66 0.27 215.33 0.27 C 218.79 0.27 221.63 -2.43 221.87 -5.87 C 221.92 -6.64 221.31 -7.31 220.52 -7.31 L 215.33 -7.31 C 214.79 -7.31 214.34 -6.86 214.34 -6.32 C 214.34 -5.78 214.79 -5.33 215.33 -5.33 Z M 219.89 -5.98 L 219.89 -6.01 Z M 231.53 -1.98 L 224.78 -1.98 L 224.78 -5.31 L 229.73 -5.31 C 230.27 -5.31 230.72 -5.76 230.72 -6.3 C 230.72 -6.84 230.27 -7.29 229.73 -7.29 L 224.78 -7.29 L 224.78 -10.62 L 231.53 -10.62 C 232.07 -10.62 232.52 -11.07 232.52 -11.61 C 232.52 -12.15 232.07 -12.6 231.53 -12.6 L 224.15 -12.6 C 223.42 -12.6 222.8 -11.99 222.8 -11.25 L 222.8 -1.35 C 222.8 -0.61 223.42 0 224.15 0 L 231.53 0 C 232.07 0 232.52 -0.45 232.52 -0.99 C 232.52 -1.53 232.07 -1.98 231.53 -1.98 Z M 239.4 -0.81 L 239.4 -10.62 L 242.37 -10.62 C 242.91 -10.62 243.36 -11.07 243.36 -11.61 C 243.36 -12.15 242.91 -12.6 242.37 -12.6 L 234.45 -12.6 C 233.91 -12.6 233.46 -12.15 233.46 -11.61 C 233.46 -11.07 233.91 -10.62 234.45 -10.62 L 237.42 -10.62 L 237.42 -0.81 C 237.42 -0.27 237.87 0.18 238.41 0.18 C 238.95 0.18 239.4 -0.27 239.4 -0.81 Z M 244.3 -11.79 L 244.3 -0.81 C 244.3 -0.27 244.75 0.18 245.29 0.18 C 245.83 0.18 246.28 -0.27 246.28 -0.81 L 246.28 -5.31 L 253.3 -5.31 L 253.3 -0.81 C 253.3 -0.27 253.75 0.18 254.29 0.18 C 254.83 0.18 255.28 -0.27 255.28 -0.81 L 255.28 -11.79 C 255.28 -12.33 254.83 -12.78 254.29 -12.78 C 253.75 -12.78 253.3 -12.33 253.3 -11.79 L 253.3 -7.29 L 246.28 -7.29 L 246.28 -11.79 C 246.28 -12.33 245.83 -12.78 245.29 -12.78 C 244.75 -12.78 244.3 -12.33 244.3 -11.79 Z M 264.94 -1.98 L 258.19 -1.98 L 258.19 -5.31 L 263.14 -5.31 C 263.68 -5.31 264.13 -5.76 264.13 -6.3 C 264.13 -6.84 263.68 -7.29 263.14 -7.29 L 258.19 -7.29 L 258.19 -10.62 L 264.94 -10.62 C 265.48 -10.62 265.93 -11.07 265.93 -11.61 C 265.93 -12.15 265.48 -12.6 264.94 -12.6 L 257.56 -12.6 C 256.82 -12.6 256.21 -11.99 256.21 -11.25 L 256.21 -1.35 C 256.21 -0.61 256.82 0 257.56 0 L 264.94 0 C 265.48 0 265.93 -0.45 265.93 -0.99 C 265.93 -1.53 265.48 -1.98 264.94 -1.98 Z M 276.1 -1.4 L 273.91 -4.37 C 275.38 -4.99 276.43 -6.37 276.43 -8.19 C 276.43 -10.64 274.46 -12.6 272.02 -12.6 L 268.22 -12.6 C 267.48 -12.6 266.87 -11.99 266.87 -11.25 L 266.87 -0.81 C 266.87 -0.27 267.32 0.18 267.86 0.18 C 268.4 0.18 268.85 -0.27 268.85 -0.81 L 268.85 -4 L 271.71 -4 L 274.52 -0.22 C 274.7 0.02 274.99 0.18 275.31 0.18 C 275.85 0.18 276.3 -0.27 276.3 -0.81 C 276.3 -1.03 276.23 -1.24 276.1 -1.4 Z M 268.85 -5.98 L 268.85 -10.62 L 272.02 -10.62 C 273.49 -10.62 274.45 -9.67 274.45 -8.19 C 274.45 -6.71 273.55 -5.98 272.02 -5.98 Z M 279.25 -0.63 L 279.25 -0.72 C 279.25 -1.31 278.77 -1.8 278.17 -1.8 C 277.58 -1.8 277.09 -1.31 277.09 -0.72 L 277.09 -0.63 C 277.09 -0.04 277.58 0.45 278.17 0.45 C 278.77 0.45 279.25 -0.04 279.25 -0.63 Z" stroke-linecap="round" />
</g>
</g>
</g>
<g transform="matrix(2.0585962007206158 0 0 2.0585962007206158 640 512.2942851531815)" id="shape-57613f6f-2467-44e9-8853-2d6243748ba9"  >
<g style=""  paint-order="stroke"   >
		<g transform="matrix(1 0 0 1 2.0680098275877583 36.382785691947326)" id="path-24_00000113335994203536438860000016820979631242365096_"  >
<path style="stroke: none; stroke-width: 1; stroke-dasharray: none; stroke-linecap: butt; stroke-dashoffset: 0; stroke-linejoin: miter; stroke-miterlimit: 4; fill: rgb(175,221,213); fill-rule: nonzero; opacity: 1;"  paint-order="stroke"  transform=" translate(-117.41564817293978, -161.38278388917547)" d="M 44.08038 131.65797 L 65.47053 175.16801 C 39.57735 204.21509 19.6988 217.45757 8.85979 206.9458 C 6.70008 204.85136 5.37768 202.05489 4.728260000000001 199.11612 C 0.249 178.84381 21.93933 155.27924 44.08038 131.65797 z M 229.73792 120.63918 C 224.18534 106.87393999999999 201.05698 110.84263999999999 166.23462 126.61035 L 168.13028 174.22586 C 197.4223 161.83598 226.28691 149.31735 230.33264 129.32025000000002 C 230.9191 126.42134 230.84427 123.38188 229.73792 120.63918 z" stroke-linecap="round" />
</g>
		<g transform="matrix(1 0 0 1 1.2301615483864623 36.07339023822464)" id="path-23_00000120549276550073877000000006902454631182094979_"  >
<path style="stroke: none; stroke-width: 1; stroke-dasharray: none; stroke-linecap: butt; stroke-dashoffset: 0; stroke-linejoin: miter; stroke-miterlimit: 4; fill: rgb(161,210,193); fill-rule: nonzero; opacity: 1;"  paint-order="stroke"  transform=" translate(-116.57779989373849, -161.07338843545278)" d="M 45.24758 175.71118 L 47.78519 180.87605000000002 C 30.83281 199.90236000000002 17.81429 208.5704 10.710709999999999 201.68693000000002 C 9.295639999999999 200.31782 8.43722 198.48599000000002 8.003219999999999 196.55972000000003 C 7.871159999999999 195.96489000000003 7.776809999999999 195.37005000000002 7.710779999999999 194.76573000000002 C 8.01263 195.18120000000002 8.34288 195.56834 8.710759999999999 195.92714 C 15.73891 202.73509 28.55932 194.32191 45.24758 175.71118 z M 224.73029 122.37351 C 223.99083 120.52865 222.82276 119.11272 221.25812 118.11509 C 221.71894 119.84212 221.69747999999998 121.68706999999999 221.34375 123.45694999999999 C 218.97565 135.13909999999998 205.22550999999999 143.39386 188.87286 150.85938 L 188.90434 157.94013999999999 C 206.88210999999998 150.01268 222.63378999999998 141.41241 225.18036999999998 128.83093 C 225.6091 126.67488 225.55547 124.41164 224.73029 122.37351 z" stroke-linecap="round" />
</g>
		<g transform="matrix(1 0 0 1 -9.08444735454659 92.71049002366755)" id="path-22_00000069370526448176322050000018430658475343179151_"  >
<path style="stroke: none; stroke-width: 1; stroke-dasharray: none; stroke-linecap: butt; stroke-dashoffset: 0; stroke-linejoin: miter; stroke-miterlimit: 4; fill: rgb(161,210,193); fill-rule: nonzero; opacity: 1;"  paint-order="stroke"  transform=" translate(-106.26319099080544, -217.71048822089568)" d="M 166.29457 195.90555 C 166.29457 195.90555 161.67177999999998 251.17015 104.97823 249.98108000000002 C 104.44574999999999 249.96991000000003 103.91292 249.95020000000002 103.37957 249.93137000000002 C 73.55727 248.87995 49.28537 225.50702 46.26601 195.79224000000002 C 43.88825 172.39099 166.29457 195.90555 166.29457 195.90555 z" stroke-linecap="round" />
</g>
		<g transform="matrix(1 0 0 1 -8.85966134160968 54.79993728731559)" id="path-21_00000166654176099053547830000018200123787256869545_"  >
<path style="stroke: none; stroke-width: 1; stroke-dasharray: none; stroke-linecap: butt; stroke-dashoffset: 0; stroke-linejoin: miter; stroke-miterlimit: 4; fill: rgb(175,221,213); fill-rule: nonzero; opacity: 1;"  paint-order="stroke"  transform=" translate(-106.48797700374234, -179.79993548454374)" d="M 167.62067 188.61313 C 167.08765 193.60208 165.92079999999999 198.40349 164.22093999999998 202.94547 C 164.13522999999998 203.16985 158.50336 203.46105 158.41765999999998 203.68075 C 158.31607999999997 203.94110999999998 163.76065999999997 204.1293 163.6591 204.38736999999998 C 154.29538 227.54404999999997 130.8285 243.66431999999998 104.98465999999999 242.95779 L 103.38564999999998 242.91449999999998 C 78.16123999999999 242.02052999999998 57.042419999999986 227.32768999999996 48.81682999999998 204.38732 C 48.72859999999998 204.16314 53.05196999999998 203.75876 52.97350999999998 203.53309 C 52.88543999999998 203.27975999999998 48.396419999999985 203.20474 48.31257999999998 202.94544 C 47.05928999999998 199.18213 46.151729999999986 195.18809 45.63313999999998 191.02102 C 42.67998999999998 167.67687 42.924869999999984 141.31924999999998 43.35702999999998 116.61974 L 169.40697 116.61977999999999 C 170.1561 139.96391 170.30011 163.8271 167.62067 188.61313 z" stroke-linecap="round" />
</g>
		<g transform="matrix(1 0 0 1 -8.904318345352017 34.84212680277187)" id="path-20_00000023994190225972654170000009821904921990862745_"  >
<path style="stroke: none; stroke-width: 1; stroke-dasharray: none; stroke-linecap: butt; stroke-dashoffset: 0; stroke-linejoin: miter; stroke-miterlimit: 4; fill: rgb(106,177,167); fill-rule: nonzero; opacity: 1;"  paint-order="stroke"  transform=" translate(-106.44332, -159.842125)" d="M 141.50945 130.16824 L 141.50942999999998 179.00148000000002 C 141.50942999999998 184.80853000000002 136.80621 189.51605 131.00446 189.51605 L 81.88217 189.51603 C 76.0804 189.51603 71.37719 184.80851 71.37719 179.00144 L 71.37721 130.1682 L 141.50945 130.16824 z" stroke-linecap="round" />
</g>
		<g transform="matrix(1 0 0 1 -8.904323345352047 30.572876802779838)" id="path-19_00000176723833193226215030000013897421668986714770_"  >
<path style="stroke: none; stroke-width: 1; stroke-dasharray: none; stroke-linecap: butt; stroke-dashoffset: 0; stroke-linejoin: miter; stroke-miterlimit: 4; fill: rgb(97,162,166); fill-rule: nonzero; opacity: 1;"  paint-order="stroke"  transform=" translate(-106.44331499999998, -155.57287500000797)" d="M 138.3524 125.89899 L 138.35237999999998 174.73223000000002 C 138.35237999999998 180.53928000000002 133.64915 185.2468 127.84738999999999 185.24679 L 85.03921 185.24677 C 79.23743999999999 185.24677 74.53423 180.53927 74.53423 174.7322 L 74.53425 125.89896 L 138.3524 125.89899 z" stroke-linecap="round" />
</g>
		<g transform="matrix(1 0 0 1 -9.080888345352008 78.6663968027719)" id="path-18_00000022523617370908718240000008145806500766875801_"  >
<path style="stroke: none; stroke-width: 1; stroke-dasharray: none; stroke-linecap: butt; stroke-dashoffset: 0; stroke-linejoin: miter; stroke-miterlimit: 4; fill: rgb(97,162,166); fill-rule: nonzero; opacity: 1;"  paint-order="stroke"  transform=" translate(-106.26675000000002, -203.66639500000002)" d="M 164.22093 202.94547 C 164.03364000000002 203.43575 163.84636 203.91152 163.65909000000002 204.38736 L 48.81682000000002 204.38731 C 48.62954000000002 203.91146 48.47110000000002 203.43571 48.31257000000002 202.94543000000002 L 164.22093 202.94547 z" stroke-linecap="round" />
</g>
		<g transform="matrix(1 0 0 1 -8.73613334535203 80.0243768027719)" id="path-17_00000143581349089806710560000005693171140860527031_"  >
<path style="stroke: none; stroke-width: 1; stroke-dasharray: none; stroke-linecap: butt; stroke-dashoffset: 0; stroke-linejoin: miter; stroke-miterlimit: 4; fill: rgb(94,140,116); fill-rule: nonzero; opacity: 1;"  paint-order="stroke"  transform=" translate(-106.611505, -205.02437500000002)" d="M 144.79626 195.46111 C 144.79626 193.99008999999998 145.98756 192.7977 147.45723999999998 192.7977 C 148.92681 192.7977 150.11819999999997 193.99009999999998 150.11819999999997 195.46111 C 150.11819999999997 196.93204 148.92680999999996 198.12442 147.45721999999998 198.12442 C 145.98756 198.12442 144.79626 196.93204 144.79626 195.46111 z M 65.76569 192.79767 C 64.29610000000001 192.79767 63.104800000000004 193.99007 63.104800000000004 195.46108 C 63.104800000000004 196.93201000000002 64.29610000000001 198.12439 65.76569 198.12439 C 67.23536 198.12439 68.42666000000001 196.93201 68.42667 195.46108 C 68.42667 193.99007 67.23536 192.79767 65.76569 192.79767 z M 147.45723 211.92426 C 145.98756 211.92426 144.79625000000001 213.11673 144.79625000000001 214.58767 C 144.79625000000001 216.05868 145.98756 217.25108 147.45723 217.25108 C 148.92682000000002 217.25108 150.11821 216.05868 150.11821 214.58767 C 150.11821 213.11673 148.92682 211.92426 147.45723 211.92426 z M 65.76568 211.92422 C 64.29610000000001 211.92422 63.104800000000004 213.11668999999998 63.104800000000004 214.58763 C 63.104800000000004 216.05864 64.29610000000001 217.25104 65.76568 217.25104 C 67.23535 217.25104 68.42666 216.05864 68.42666 214.58763 C 68.42666 213.1167 67.23536 211.92422 65.76568 211.92422 z" stroke-linecap="round" />
</g>
		<g transform="matrix(1 0 0 1 -8.907988345352024 78.66639680277181)" id="path-16_00000072958992150697695510000015060944983780844187_"  >
<path style="stroke: none; stroke-width: 1; stroke-dasharray: none; stroke-linecap: butt; stroke-dashoffset: 0; stroke-linejoin: miter; stroke-miterlimit: 4; fill: rgb(94,140,116); fill-rule: nonzero; opacity: 1;"  paint-order="stroke"  transform=" translate(-106.43965, -203.66639499999997)" d="M 139.9185 200.78264 L 139.9185 206.55016999999998 C 139.9185 207.99205999999998 138.75164999999998 209.15999 137.31108 209.15999 L 75.58256 209.15997 C 74.12766 209.15997 72.9608 207.99203 72.9608 206.55014999999997 L 72.9608 200.78259999999997 C 72.9608 199.38392999999996 74.05556 198.24486999999996 75.43855 198.18722999999997 C 75.48181000000001 198.17279999999997 75.5394 198.17279999999997 75.58257 198.17279999999997 L 78.96619 203.49388999999996 L 133.63794000000001 202.32712999999995 L 137.31108 198.17281999999994 C 137.35425 198.17281999999994 137.39751 198.17281999999994 137.44067 198.18724999999995 C 138.82365 198.2449 139.9185 199.38396 139.9185 200.78264 z" stroke-linecap="round" />
</g>
		<g transform="matrix(1 0 0 1 -8.908033345351988 77.47682680277188)" id="path-15_00000183239994686297147720000007447319177684046522_"  >
<path style="stroke: none; stroke-width: 1; stroke-dasharray: none; stroke-linecap: butt; stroke-dashoffset: 0; stroke-linejoin: miter; stroke-miterlimit: 4; fill: rgb(94,140,116); fill-rule: nonzero; opacity: 1;"  paint-order="stroke"  transform=" translate(-106.43960500000003, -202.47682500000002)" d="M 137.46951 198.40349 L 137.46951 204.15669 C 137.46951 205.59857 136.30266 206.78084 134.86209000000002 206.78084 L 78.03155000000002 206.78082 C 76.59098000000003 206.78082 75.40970000000003 205.59855000000002 75.40970000000003 204.15666000000002 L 75.40971000000003 198.40347000000003 C 75.40971000000003 198.33139000000003 75.40971000000003 198.25930000000002 75.43855000000003 198.18724000000003 C 75.48181000000004 198.17281000000003 75.53940000000003 198.17281000000003 75.58257000000003 198.17281000000003 L 137.31109000000004 198.17283000000003 C 137.35426000000004 198.17283000000003 137.39752000000004 198.17283000000003 137.44068000000004 198.18726000000004 C 137.46951 198.25934 137.46951 198.33141 137.46951 198.40349 z" stroke-linecap="round" />
</g>
		<g transform="matrix(1 0 0 1 -8.90430274078956 -42.931608197228144)" id="path-14_00000047026673349004133320000008974876166022393229_"  >
<path style="stroke: none; stroke-width: 1; stroke-dasharray: none; stroke-linecap: butt; stroke-dashoffset: 0; stroke-linejoin: miter; stroke-miterlimit: 4; fill: rgb(216,251,245); fill-rule: nonzero; opacity: 1;"  paint-order="stroke"  transform=" translate(-106.44333560456246, -82.06839)" d="M 208.10771 107.90607 C 207.57208 109.53479 206.18576 110.63627 204.61409 110.63627 L 184.13536 110.63626 L 184.13538 53.50055999999999 L 204.82741 53.500569999999996 C 206.30789 53.500569999999996 207.63029999999998 54.48235999999999 208.23319999999998 55.972919999999995 C 214.72394 72.02068 214.18478 89.42795 208.10771 107.90607 z M 4.65356 55.97285 C -1.8372800000000007 72.02061 -1.29812 89.42788 4.77893 107.90601000000001 C 5.31457 109.53473000000001 6.700889999999999 110.63621 8.27256 110.63621 L 28.75128 110.63622000000001 L 28.7513 53.50052000000001 L 8.05927 53.50051 C 6.57878 53.50051 5.25638 54.4823 4.65356 55.97285 z" stroke-linecap="round" />
</g>
		<g transform="matrix(1 0 0 1 -8.904265192039801 -44.876183197234454)" id="path-13_00000070833653130382231700000007267345953636818315_"  >
<path style="stroke: none; stroke-width: 1; stroke-dasharray: none; stroke-linecap: butt; stroke-dashoffset: 0; stroke-linejoin: miter; stroke-miterlimit: 4; fill: rgb(74,167,165); fill-rule: nonzero; opacity: 1;"  paint-order="stroke"  transform=" translate(-106.44337315331222, -80.12381499999368)" d="M 207.14195 79.93485 C 206.89329 96.11039 201.46469000000002 100.26698999999999 197.97853 100.26698999999999 L 197.97855 59.98069999999999 C 201.46469 59.9807 207.35738 65.91563 207.14195 79.93485 z M 5.7448 79.93479 C 5.99336 96.11033 11.42197 100.26693 14.90812 100.26693 L 14.90813 59.98064 C 11.42198 59.98063 5.5293 65.91557 5.7448 79.93479 z" stroke-linecap="round" />
</g>
		<g transform="matrix(1 0 0 1 -7.3552605065147105 -8.725877285867753)" id="path-12_00000129192446646730781570000018318069569386919351_"  >
<path style="stroke: none; stroke-width: 1; stroke-dasharray: none; stroke-linecap: butt; stroke-dashoffset: 0; stroke-linejoin: miter; stroke-miterlimit: 4; fill: rgb(161,210,193); fill-rule: nonzero; opacity: 0.35;"  paint-order="stroke"  transform=" translate(-107.99237783883731, -116.27412091136038)" d="M 173.41295 121.35729 C 170.61647 143.58287 141.54372999999998 160.84810000000002 106.35024 160.22491000000002 C 105.75358 160.21435000000002 105.15648 160.20211000000003 104.55884999999999 160.18830000000003 C 71.15763999999999 159.41392000000002 44.66181999999999 142.39352000000002 42.21820999999999 121.27786000000003 C 40.33977999999999 105.04635000000003 40.030199999999994 88.71670000000003 41.23740999999999 72.30698000000004 L 174.62825999999998 72.30703000000004 C 176.10927 87.80212 175.57442 104.17822 173.41295 121.35729 z" stroke-linecap="round" />
</g>
		<g transform="matrix(1 0 0 1 -8.950849843516828 -114.71212819722814)" id="path-11_00000054961841525031565910000011257866304983631501_"  >
<path style="stroke: none; stroke-width: 1; stroke-dasharray: none; stroke-linecap: butt; stroke-dashoffset: 0; stroke-linejoin: miter; stroke-miterlimit: 4; fill: rgb(106,177,167); fill-rule: nonzero; opacity: 1;"  paint-order="stroke"  transform=" translate(-106.3967885018352, -10.287870000000002)" d="M 125.84706 7.1599 L 97.85973 12.470880000000001 L 82.94399 20.575740000000003 L 82.94399 5.75311 C 82.944 2.58094 85.50817 0 88.67744 0 L 124.2163 0.00001 C 127.01101 0.00001 129.33031 2.00425 129.84898 4.657279999999999 C 129.90657 5.00332 125.84706 6.785 125.84706 7.1599 z" stroke-linecap="round" />
</g>
		<g transform="matrix(1 0 0 1 -7.777083345352047 -112.93859319722813)" id="path-10_00000089539614349220659890000002735112021893819540_"  >
<path style="stroke: none; stroke-width: 1; stroke-dasharray: none; stroke-linecap: butt; stroke-dashoffset: 0; stroke-linejoin: miter; stroke-miterlimit: 4; fill: rgb(216,251,245); fill-rule: nonzero; opacity: 1;"  paint-order="stroke"  transform=" translate(-107.57055499999998, -12.061405)" d="M 129.94983 5.75312 L 129.94983 20.57575 L 85.19127999999999 20.57573 L 85.19129 9.28574 C 85.19129 6.128010000000001 87.75546 3.547060000000001 90.92473 3.547060000000001 L 126.46359 3.547070000000001 C 127.73129999999999 3.547070000000001 128.89815 3.965190000000001 129.84899 4.657260000000001 C 129.90657 5.00332 129.94983 5.37822 129.94983 5.75312 z" stroke-linecap="round" />
</g>
		<g transform="matrix(1 0 0 1 -8.943615973360139 -51.168428135377134)" id="path-09_00000111153742147381760740000016976798624355957147_"  >
<path style="stroke: none; stroke-width: 1; stroke-dasharray: none; stroke-linecap: butt; stroke-dashoffset: 0; stroke-linejoin: miter; stroke-miterlimit: 4; fill: rgb(255,255,255); fill-rule: nonzero; opacity: 1;"  paint-order="stroke"  transform=" translate(-106.40402237199189, -73.83157006185101)" d="M 191.1972 77.72701 L 178.26527000000002 76.82458000000001 C 178.23651 81.12146000000001 177.5634 85.17678000000001 177.16008000000002 89.54573 C 174.55264000000003 117.59043 165.99779 125.8451 137.37364000000002 128.81537 C 129.62337000000002 129.62282 121.28532000000003 127.70918 113.05972000000003 127.70918 C 100.94447000000002 127.70918 89.31826000000002 136.09092 76.03624000000002 134.34629 C 48.65097000000002 130.72713000000002 32.75918000000002 119.2626 29.61875000000002 92.58771000000002 C 29.05691000000002 87.82950000000001 28.86188000000002 85.61557000000002 28.78987000000002 80.97274000000002 C 28.775450000000017 80.84293000000001 21.604450000000018 80.21210000000002 21.604450000000018 80.06786000000001 C 21.561190000000018 76.91021 21.633290000000017 73.78126 21.820570000000018 70.71003000000002 C 23.57803000000002 42.47797000000001 44.740020000000015 19.782620000000016 73.30657000000002 15.514700000000019 C 84.12527000000003 13.899800000000019 95.17442000000003 13.077920000000018 106.15157000000002 13.077920000000018 C 117.01344000000002 13.077920000000018 128.10585000000003 13.88538000000002 139.11183000000003 15.471420000000018 C 167.57753000000002 19.58086000000002 189.41653000000002 42.93935000000002 191.05881000000002 71.01291000000002 C 191.24608 74.24273 191.22604 74.42512 191.1972 77.72701 z" stroke-linecap="round" />
</g>
		<g transform="matrix(1 0 0 1 -8.903992789796462 -42.35832319722813)" id="path-08_00000037681057987226366290000018028629979462734730_"  >
<path style="stroke: none; stroke-width: 1; stroke-dasharray: none; stroke-linecap: butt; stroke-dashoffset: 0; stroke-linejoin: miter; stroke-miterlimit: 4; fill: rgb(175,221,213); fill-rule: nonzero; opacity: 1;"  paint-order="stroke"  transform=" translate(-106.44364555555556, -82.641675)" d="M 191.28926 80.81773 L 191.28926 80.90424 C 191.2605 85.20112 191.02995 89.54112 190.62665 93.91008 C 188.01921000000002 121.95478 165.35897 144.47702999999998 136.73483000000002 147.44729 C 128.98454 148.25474 120.87413000000002 148.65843 112.64852000000002 148.65843 C 100.53327000000002 148.65841 87.65456000000002 147.76446 74.37254000000001 146.01982 C 46.98728000000001 142.40066000000002 25.681270000000012 121.26256000000001 22.540840000000017 94.58768 C 21.979000000000017 89.82947 21.676450000000017 85.11447000000001 21.604440000000018 80.47164000000001 C 21.590020000000017 80.34183 21.604440000000018 80.21211000000001 21.604440000000018 80.06787000000001 C 21.633280000000017 78.12136000000001 21.70529000000002 76.18928000000001 21.820560000000018 74.27155000000002 C 23.578020000000016 46.02496000000002 44.740020000000015 23.329700000000017 73.30656000000002 19.061700000000016 C 84.12526000000003 17.446800000000017 95.17441000000002 16.624920000000017 106.15155000000001 16.624920000000017 C 117.01343000000001 16.624920000000017 128.10583000000003 17.432470000000016 139.11182000000002 19.018510000000017 C 167.57752000000002 23.127860000000016 189.41652000000002 46.486440000000016 191.05880000000002 74.57435000000002 C 191.17407 76.63631 191.2605 78.72697 191.28926 80.81773 z" stroke-linecap="round" />
</g>
		<g transform="matrix(1 0 0 1 -8.825907042423566 -44.53349819727781)" id="path-07_00000101089814724180208320000014164032258303239096_"  >
<path style="stroke: none; stroke-width: 1; stroke-dasharray: none; stroke-linecap: butt; stroke-dashoffset: 0; stroke-linejoin: miter; stroke-miterlimit: 4; fill: rgb(25,80,79); fill-rule: nonzero; opacity: 1;"  paint-order="stroke"  transform=" translate(-106.52173130292846, -80.46649999995033)" d="M 180.5351 92.25459 C 178.31778 115.24864 159.31806 133.70123 135.35441 136.13044 C 128.02644 136.87321 120.36109 137.25039999999998 112.56976 137.25039999999998 C 101.03006 137.25037999999998 88.74099000000001 136.42111999999997 76.04490000000001 134.78744999999998 C 53.14375000000001 131.83854999999997 35.33260000000001 114.54550999999998 32.73186000000001 92.73371999999998 C 31.857790000000012 85.40345999999998 31.64299000000001 78.16128999999998 32.09168000000001 71.20821999999998 C 33.58897000000001 48.03586999999998 51.35537000000001 29.415889999999983 75.29633000000001 25.926909999999985 C 85.51397000000001 24.437769999999986 95.94501000000001 23.682589999999983 106.30061 23.682599999999987 C 116.5776 23.682599999999987 127.06588 24.42607999999999 137.47644 25.892429999999987 C 161.32718 29.25152999999999 179.61409 48.41090999999999 180.96031 71.44904999999999 C 181.35773 78.20905 181.21405 85.20903 180.5351 92.25459 z" stroke-linecap="round" />
</g>
		<g transform="matrix(1 0 0 1 -8.82589111658011 -44.53347319728137)" id="path-06_00000141418467965423991430000010399765880390614696_"  >
<path style="stroke: none; stroke-width: 1; stroke-dasharray: none; stroke-linecap: butt; stroke-dashoffset: 0; stroke-linejoin: miter; stroke-miterlimit: 4; fill: rgb(137,216,207); fill-rule: nonzero; opacity: 1;"  paint-order="stroke"  transform=" translate(-106.52174722877191, -80.46652499994677)" d="M 175.54128 91.4592 C 173.47353 112.9018 155.75583 130.10938 133.40897 132.37473 C 126.57540000000002 133.06733 119.42732000000001 133.41909 112.16169000000001 133.41909 C 101.40058 133.41907 89.94064 132.64577 78.10130000000001 131.12229000000002 C 56.74526000000001 128.37238000000002 40.13588000000001 112.24611000000002 37.71055000000001 91.90605000000002 C 36.89557000000001 85.07038000000003 36.69519000000001 78.31682000000002 37.113630000000015 71.83291000000003 C 38.50989000000001 50.224070000000026 55.077520000000014 32.860370000000025 77.40320000000001 29.606810000000024 C 86.93142000000002 28.218170000000026 96.65870000000001 27.513950000000023 106.31547 27.513960000000026 C 115.89917 27.513960000000026 125.67974000000001 28.207280000000026 135.38784 29.574710000000024 C 157.62939 32.707100000000025 174.68244 50.573770000000025 175.93783000000002 72.05747000000002 C 176.30843 78.36139 176.17442 84.88904 175.54128 91.4592 z" stroke-linecap="round" />
</g>
		<g transform="matrix(1 0 0 1 -8.82633578764056 -44.53351167476804)" id="path-05_00000118361832250179712680000016532843474499561601_"  >
<path style="stroke: none; stroke-width: 1; stroke-dasharray: none; stroke-linecap: butt; stroke-dashoffset: 0; stroke-linejoin: miter; stroke-miterlimit: 4; fill: rgb(216,251,245); fill-rule: nonzero; opacity: 1;"  paint-order="stroke"  transform=" translate(-106.52130255771146, -80.46648652246009)" d="M 169.29443 90.62948 C 167.45106 109.75541 151.75294 124.99228 131.73855 127.02098000000001 C 115.07571 128.70998 97.75157 128.13670000000002 79.9239 125.84160000000001 C 61.0427 123.41078000000002 46.09326 109.05854000000002 43.939530000000005 90.99395000000001 C 43.188300000000005 84.69204 42.99539000000001 78.51051000000001 43.386660000000006 72.45493000000002 C 44.618500000000004 53.39192000000002 59.52082000000001 37.77495000000002 79.30581000000001 34.89172000000002 C 97.07361 32.30242000000002 115.13992000000002 32.27559000000002 133.5109 34.86322000000002 C 153.46953 37.67440000000002 168.53994999999998 53.42910000000002 169.66398999999998 72.65157000000002 C 170.0119 78.60076 169.87614 84.59457 169.29443 90.62948 z" stroke-linecap="round" />
</g>
		<g transform="matrix(1 0 0 1 -7.986758345352044 -51.045263197228145)" id="path-04_00000054262483580613255270000005522004265069763228_"  >
<path style="stroke: none; stroke-width: 1; stroke-dasharray: none; stroke-linecap: butt; stroke-dashoffset: 0; stroke-linejoin: miter; stroke-miterlimit: 4; fill: rgb(137,216,207); fill-rule: nonzero; opacity: 1;"  paint-order="stroke"  transform=" translate(-107.36087999999998, -73.954735)" d="M 155.64708 82.02348 C 155.64708 82.20117 155.64708 82.37867 155.6353 82.55636000000001 C 143.65018 75.70784000000002 132.79297 75.70783000000002 123.06358 82.55635000000001 C 123.05171 82.37867000000001 123.05171 82.20116000000002 123.05171 82.02347 C 123.05172 73.02348 130.33986 65.7168 139.34351 65.71681000000001 C 148.34717 65.7168 155.64708 73.02348 155.64708 82.02348 z M 75.83433 65.29312 C 66.57208 65.29312 59.074679999999994 72.80968 59.074679999999994 82.06815 C 59.074679999999994 82.25094 59.074679999999994 82.43364 59.08680999999999 82.61634000000001 C 69.09572 75.57114000000001 80.26472 75.57114000000001 92.59406999999999 82.61635000000001 C 92.60619999999999 82.43366000000002 92.60619999999999 82.25096 92.60619999999999 82.06816 C 92.60619 72.8097 85.09657 65.29312 75.83433 65.29312 z" stroke-linecap="round" />
</g>
		<g transform="matrix(1 0 0 1 -9.115928013094234 -53.8000052531317)" id="path-03_00000027597529613683908580000017209068538786652545_"  >
<path style="stroke: none; stroke-width: 1; stroke-dasharray: none; stroke-linecap: butt; stroke-dashoffset: 0; stroke-linejoin: miter; stroke-miterlimit: 4; fill: rgb(91,175,156); fill-rule: nonzero; opacity: 1;"  paint-order="stroke"  transform=" translate(-106.23171033225779, -71.19999294409644)" d="M 164.76109 64.77348 C 158.65828 55.188770000000005 147.11674 46.29315000000001 134.67854 44.947540000000004 C 117.86807 43.13514000000001 101.57284 42.889250000000004 85.92334 44.71061 C 67.13596 46.904320000000006 51.796389999999995 60.93498 50.30965 80.70327 C 49.89165 86.26162000000001 49.82394 91.75301 50.244139999999994 97.21341000000001 C 50.453399999999995 99.89723000000001 52.643269999999994 102.69520000000001 53.43214 105.19685000000001 C 50.366879999999995 100.39156000000001 48.454679999999996 94.86453000000002 48.00011 88.98108000000002 C 47.58018 83.53397000000002 47.60647 78.02622000000002 48.065799999999996 72.48431000000002 C 49.49502999999999 54.89144000000002 64.00704999999999 40.64525000000002 82.80815 38.46457000000002 C 98.45739 36.62992000000003 114.75279 36.87590000000002 131.56318 38.68829000000002 C 147.396 40.39852 160.45284 50.82853 164.76109 64.77348 z" stroke-linecap="round" />
</g>
		<g transform="matrix(1 0 0 1 -5.9796067940555915 -33.22679119547415)" id="path-02_00000065773717560706113690000008021710028544792201_"  >
<path style="stroke: none; stroke-width: 1; stroke-dasharray: none; stroke-linecap: butt; stroke-dashoffset: 0; stroke-linejoin: miter; stroke-miterlimit: 4; fill: rgb(56,146,135); fill-rule: nonzero; opacity: 1;"  paint-order="stroke"  transform=" translate(-109.36803155129644, -91.77320700175399)" d="M 167.9308 89.1882 C 166.59221 104.86097 148.7698 120.40189 131.31142 122.35685 C 116.77971 124.00131999999999 101.64949 123.79301 86.04211000000001 122.18954 C 71.34238 120.67644999999999 54.45313000000001 111.55113 50.46202000000001 99.13175999999999 C 56.12231000000001 107.66575999999999 70.85255000000001 113.49113999999999 82.40059000000001 114.68167999999999 C 98.00807 116.28514999999999 113.13819000000001 116.49345999999998 127.67008000000001 114.86078999999998 C 145.11573 112.89430999999998 162.95080000000002 97.35320999999998 164.28946000000002 81.69222999999998 C 164.7195 76.74339999999998 164.74764000000002 71.84869999999998 164.36112000000003 66.98488999999998 C 164.16866000000002 64.59429999999998 163.70044000000001 62.27912999999998 162.96961000000002 60.05117999999998 C 165.8126 64.32974999999998 167.58446 69.25208999999998 168.00265000000002 74.49274999999999 C 168.38898 79.34476 168.36093 84.25117 167.9308 89.1882 z" stroke-linecap="round" />
</g>
		<g transform="matrix(1 0 0 1 -1.1715114174803887 28.499603247315747)" id="path-01_00000093159283340042858670000011251598221217876913_"  >
<path style="stroke: none; stroke-width: 1; stroke-dasharray: none; stroke-linecap: butt; stroke-dashoffset: 0; stroke-linejoin: miter; stroke-miterlimit: 4; fill: rgb(255,255,255); fill-rule: nonzero; opacity: 1;"  paint-order="stroke"  transform=" translate(-114.17612692787164, -153.49960144454388)" d="M 42.91844 142.22676 C 36.896159999999995 150.13222000000002 30.28926 157.51027000000002 24.262319999999995 165.35994000000002 C 18.397599999999997 173.14923000000002 12.191379999999995 181.07925000000003 10.468129999999995 190.94627000000003 C 9.48337 173.36098 30.30562 152.90704 42.91844 142.22676 z M 183.49588 126.09297 C 194.76195 122.17329 205.92093 117.93476 217.91783 117.15996 C 207.01041 113.67854 191.97313 118.88909 183.49588 126.09297 z" stroke-linecap="round" />
</g>
</g>
</g>
</svg>